<svg width="48" height="48" viewBox="0 0 48 48" fill="none" xmlns="http://www.w3.org/2000/svg">
<path d="M24 13C25.3261 13 26.5979 13.5268 27.5355 14.4645C28.4732 15.4021 29 16.6739 29 18C29 18.6566 28.8707 19.3068 28.6194 19.9134C28.3681 20.52 27.9998 21.0712 27.5355 21.5355C27.0712 21.9998 26.52 22.3681 25.9134 22.6194C25.3068 22.8707 24.6566 23 24 23C22.6739 23 21.4021 22.4732 20.4645 21.5355C19.5268 20.5979 19 19.3261 19 18C19 16.6739 19.5268 15.4021 20.4645 14.4645C21.4021 13.5268 22.6739 13 24 13ZM24 4C27.713 4 31.274 5.475 33.8995 8.1005C36.525 10.726 38 14.287 38 18C38 28.5 24 44 24 44C24 44 10 28.5 10 18C10 14.287 11.475 10.726 14.1005 8.1005C16.726 5.475 20.287 4 24 4ZM24 8C21.3478 8 18.8043 9.05357 16.9289 10.9289C15.0536 12.8043 14 15.3478 14 18C14 20 14 24 24 37.42C34 24 34 20 34 18C34 15.3478 32.9464 12.8043 31.0711 10.9289C29.1957 9.05357 26.6522 8 24 8Z" fill="white"/>
</svg>
