<svg xmlns="http://www.w3.org/2000/svg" version="1.1" xmlns:xlink="http://www.w3.org/1999/xlink" xmlns:svgjs="http://svgjs.dev/svgjs" width="1500" height="321" viewBox="0 0 1500 321"><g transform="matrix(1,0,0,1,-0.9090909090909918,-1.8723835228573762)"><svg viewBox="0 0 396 85" data-background-color="#113826" preserveAspectRatio="xMidYMid meet" height="321" width="1500" xmlns="http://www.w3.org/2000/svg" xmlns:xlink="http://www.w3.org/1999/xlink"><g id="tight-bounds" transform="matrix(1,0,0,1,0.2400000000000091,0.495802490476251)"><svg viewBox="0 0 395.52 84.00839501904753" height="84.00839501904753" width="395.52"><g><svg viewBox="0 0 519.7585770124067 110.39665213439598" height="84.00839501904753" width="395.52"><g transform="matrix(1,0,0,1,124.23857701240674,15.257424426678462)"><svg viewBox="0 0 395.52 79.88180328103905" height="79.88180328103905" width="395.52"><g id="textblocktransform"><svg viewBox="0 0 395.52 79.88180328103905" height="79.88180328103905" width="395.52" id="textblock"><g><svg viewBox="0 0 395.52 48.61659666908038" height="48.61659666908038" width="395.52"><g transform="matrix(1,0,0,1,0,0)"><svg width="395.52" viewBox="1.8 -33.5 276.17 33.95" height="48.61659666908038" data-palette-color="#9c7945"><path d="M22.5-8.85L22.5-8.85Q22.5-6.35 21.5-4.58 20.5-2.8 18.93-1.7 17.35-0.6 15.38-0.1 13.4 0.4 11.45 0.4L11.45 0.4Q9.45 0.4 8 0 6.55-0.4 5.35-0.75L5.35-0.75Q4.55-1 3.9-1.18 3.25-1.35 2.6-1.35L2.6-1.35 2.6-7.05 3.1-7.05Q3.1-5.15 4.08-4.03 5.05-2.9 6.35-2.3 7.65-1.7 8.95-1.53 10.25-1.35 10.85-1.35L10.85-1.35Q13-1.35 14.55-1.98 16.1-2.6 17.1-3.63 18.1-4.65 18.57-5.9 19.05-7.15 19.05-8.45L19.05-8.45Q19.05-10.1 18.35-11.23 17.65-12.35 16.53-13.2 15.4-14.05 13.95-14.65 12.5-15.25 11-15.85L11-15.85Q9.3-16.5 7.65-17.2 6-17.9 4.7-18.93 3.4-19.95 2.6-21.38 1.8-22.8 1.8-24.9L1.8-24.9Q1.8-27.1 2.65-28.73 3.5-30.35 4.93-31.4 6.35-32.45 8.18-32.98 10-33.5 11.9-33.5L11.9-33.5Q13.2-33.5 14.35-33.33 15.5-33.15 16.55-32.9L16.55-32.9Q17.4-32.7 18.2-32.58 19-32.45 19.75-32.45L19.75-32.45 19.75-27.3 19.25-27.3Q19.15-29.9 17.2-30.83 15.25-31.75 11.8-31.75L11.8-31.75Q9.8-31.75 8.53-31.08 7.25-30.4 6.5-29.43 5.75-28.45 5.48-27.33 5.2-26.2 5.2-25.35L5.2-25.35Q5.2-23.95 5.83-22.95 6.45-21.95 7.5-21.2 8.55-20.45 9.93-19.85 11.3-19.25 12.8-18.7L12.8-18.7Q14.5-18.05 16.25-17.3 18-16.55 19.38-15.45 20.75-14.35 21.63-12.75 22.5-11.15 22.5-8.85ZM46.85-10.1L29.5-10.1Q29.7-8.35 30.35-6.78 31-5.2 32.07-4 33.15-2.8 34.7-2.08 36.25-1.35 38.3-1.35L38.3-1.35Q39.4-1.35 40.62-1.68 41.85-2 42.9-2.6 43.95-3.2 44.77-4.08 45.6-4.95 45.9-6.05L45.9-6.05 46.35-6.05 46.35-2.3Q46.05-2.3 45.67-2.1 45.3-1.9 44.8-1.6L44.8-1.6Q43.8-1 42.1-0.33 40.4 0.35 37.6 0.35L37.6 0.35Q35.35 0.35 33.32-0.3 31.3-0.95 29.75-2.3 28.2-3.65 27.27-5.75 26.35-7.85 26.35-10.75L26.35-10.75Q26.35-12.6 26.97-14.5 27.6-16.4 28.87-17.93 30.15-19.45 32.15-20.4 34.15-21.35 36.95-21.35L36.95-21.35Q39.45-21.35 41.32-20.5 43.2-19.65 44.42-18.15 45.65-16.65 46.25-14.6 46.85-12.55 46.85-10.1L46.85-10.1ZM36.75-19.7L36.75-19.7Q35-19.7 33.72-19 32.45-18.3 31.55-17.2 30.65-16.1 30.15-14.7 29.65-13.3 29.5-11.9L29.5-11.9 43.75-11.9Q43.7-13.35 43.22-14.75 42.75-16.15 41.9-17.25 41.05-18.35 39.75-19.03 38.45-19.7 36.75-19.7ZM61.5 0.35L61.5 0.35Q59 0.35 57-0.48 55-1.3 53.57-2.73 52.15-4.15 51.37-6.1 50.6-8.05 50.6-10.35L50.6-10.35Q50.6-12.8 51.45-14.83 52.3-16.85 53.8-18.3 55.3-19.75 57.35-20.55 59.4-21.35 61.8-21.35L61.8-21.35Q64.2-21.35 66.2-20.58 68.2-19.8 69.65-18.4 71.09-17 71.9-15.08 72.7-13.15 72.7-10.85L72.7-10.85Q72.7-8.7 71.97-6.68 71.25-4.65 69.82-3.1 68.4-1.55 66.32-0.6 64.25 0.35 61.5 0.35ZM61.2-19.7L61.2-19.7Q59.4-19.6 58.02-18.82 56.65-18.05 55.72-16.82 54.8-15.6 54.32-14.05 53.85-12.5 53.85-10.9L53.85-10.9Q53.85-9.05 54.42-7.33 55-5.6 56.07-4.25 57.15-2.9 58.65-2.1 60.15-1.3 62-1.3L62-1.3Q63.85-1.3 65.27-2.1 66.7-2.9 67.65-4.17 68.59-5.45 69.07-7.05 69.55-8.65 69.55-10.25L69.55-10.25Q69.55-11.9 69.05-13.58 68.55-15.25 67.5-16.63 66.45-18 64.87-18.85 63.3-19.7 61.2-19.7ZM96.94-21.55L96.94-3.25Q96.94-2.9 97.04-2.43 97.14-1.95 97.32-1.53 97.49-1.1 97.79-0.8 98.09-0.5 98.49-0.5L98.49-0.5 98.49 0 93.64 0 93.64-2.75Q92.89-1.65 91.44-0.6 89.99 0.45 87.69 0.45L87.69 0.45Q84.79 0.45 83.09-0.55 81.39-1.55 80.49-3.1 79.59-4.65 79.34-6.48 79.09-8.3 79.09-9.9L79.09-9.9 79.09-17.05Q79.09-17.5 79.07-17.93 79.04-18.35 78.87-18.7 78.69-19.05 78.34-19.28 77.99-19.5 77.34-19.5L77.34-19.5 77.34-19.95 82.39-21.55 82.39-8.8Q82.39-5 84.04-3.2 85.69-1.4 88.09-1.4L88.09-1.4Q89.39-1.4 90.42-1.98 91.44-2.55 92.17-3.35 92.89-4.15 93.27-5 93.64-5.85 93.64-6.4L93.64-6.4 93.64-17.05Q93.64-17.5 93.62-17.93 93.59-18.35 93.42-18.7 93.24-19.05 92.89-19.28 92.54-19.5 91.89-19.5L91.89-19.5 91.89-19.95 96.94-21.55ZM110.09 0L103.54 0 103.54-0.5Q103.94-0.5 104.24-0.8 104.54-1.1 104.77-1.5 104.99-1.9 105.09-2.38 105.19-2.85 105.19-3.25L105.19-3.25 105.19-28.85Q105.19-29.7 104.94-30.45 104.69-31.2 103.44-31.25L103.44-31.25 103.44-31.75 108.49-33.3 108.49-3.25Q108.49-2.85 108.59-2.38 108.69-1.9 108.92-1.5 109.14-1.1 109.42-0.8 109.69-0.5 110.09-0.5L110.09-0.5 110.09 0ZM134.69-21.55L134.69-3.25Q134.69-2.9 134.79-2.43 134.89-1.95 135.06-1.53 135.24-1.1 135.54-0.8 135.84-0.5 136.24-0.5L136.24-0.5 136.24 0 131.39 0 131.39-2.75Q130.64-1.65 129.19-0.6 127.74 0.45 125.44 0.45L125.44 0.45Q122.54 0.45 120.84-0.55 119.14-1.55 118.24-3.1 117.34-4.65 117.09-6.48 116.84-8.3 116.84-9.9L116.84-9.9 116.84-17.05Q116.84-17.5 116.81-17.93 116.79-18.35 116.61-18.7 116.44-19.05 116.09-19.28 115.74-19.5 115.09-19.5L115.09-19.5 115.09-19.95 120.14-21.55 120.14-8.8Q120.14-5 121.79-3.2 123.44-1.4 125.84-1.4L125.84-1.4Q127.14-1.4 128.16-1.98 129.19-2.55 129.91-3.35 130.64-4.15 131.01-5 131.39-5.85 131.39-6.4L131.39-6.4 131.39-17.05Q131.39-17.5 131.36-17.93 131.34-18.35 131.16-18.7 130.99-19.05 130.64-19.28 130.29-19.5 129.64-19.5L129.64-19.5 129.64-19.95 134.69-21.55ZM151.59-19.3L145.99-19.3 145.99-7.25Q145.99-5.95 146.04-4.9 146.09-3.85 146.29-3.15 146.49-2.45 146.89-2.08 147.29-1.7 147.99-1.7L147.99-1.7Q149.04-1.7 149.96-2.7 150.89-3.7 151.14-5.1L151.14-5.1 151.59-5.1 151.59-1.45Q151.14-1.45 150.84-1.15L150.84-1.15Q150.44-0.8 149.71-0.4 148.99 0 147.54 0L147.54 0Q145.74 0 144.74-0.7 143.74-1.4 143.29-2.55 142.84-3.7 142.76-5.1 142.69-6.5 142.69-7.95L142.69-7.95 142.69-19.3 139.89-19.3 139.89-21 142.69-21 142.69-25.45Q142.69-26.3 142.46-27.03 142.24-27.75 140.99-27.8L140.99-27.8 140.99-28.3 145.99-29.9 145.99-21 151.59-21 151.59-19.3ZM162.53 0L156.03 0 156.03-0.5Q156.43-0.5 156.73-0.8 157.03-1.1 157.23-1.5 157.43-1.9 157.53-2.38 157.63-2.85 157.63-3.25L157.63-3.25 157.63-17.1Q157.63-17.95 157.38-18.73 157.13-19.5 155.93-19.55L155.93-19.55 155.93-20 160.93-21.6 160.93-3.25Q160.93-2.85 161.03-2.38 161.13-1.9 161.33-1.5 161.53-1.1 161.83-0.8 162.13-0.5 162.53-0.5L162.53-0.5 162.53 0ZM156.28-26.4L156.28-26.4Q156.28-27.4 156.96-28.1 157.63-28.8 158.63-28.8L158.63-28.8Q159.63-28.8 160.33-28.1 161.03-27.4 161.03-26.4L161.03-26.4Q161.03-25.4 160.33-24.75 159.63-24.1 158.63-24.1L158.63-24.1Q157.63-24.1 156.96-24.75 156.28-25.4 156.28-26.4ZM178.38 0.35L178.38 0.35Q175.88 0.35 173.88-0.48 171.88-1.3 170.46-2.73 169.03-4.15 168.26-6.1 167.48-8.05 167.48-10.35L167.48-10.35Q167.48-12.8 168.33-14.83 169.18-16.85 170.68-18.3 172.18-19.75 174.23-20.55 176.28-21.35 178.68-21.35L178.68-21.35Q181.08-21.35 183.08-20.58 185.08-19.8 186.53-18.4 187.98-17 188.78-15.08 189.58-13.15 189.58-10.85L189.58-10.85Q189.58-8.7 188.86-6.68 188.13-4.65 186.71-3.1 185.28-1.55 183.21-0.6 181.13 0.35 178.38 0.35ZM178.08-19.7L178.08-19.7Q176.28-19.6 174.91-18.82 173.53-18.05 172.61-16.82 171.68-15.6 171.21-14.05 170.73-12.5 170.73-10.9L170.73-10.9Q170.73-9.05 171.31-7.33 171.88-5.6 172.96-4.25 174.03-2.9 175.53-2.1 177.03-1.3 178.88-1.3L178.88-1.3Q180.73-1.3 182.16-2.1 183.58-2.9 184.53-4.17 185.48-5.45 185.96-7.05 186.43-8.65 186.43-10.25L186.43-10.25Q186.43-11.9 185.93-13.58 185.43-15.25 184.38-16.63 183.33-18 181.76-18.85 180.18-19.7 178.08-19.7ZM214.13-12.9L214.13-3.25Q214.13-2.85 214.23-2.38 214.33-1.9 214.55-1.5 214.78-1.1 215.05-0.8 215.33-0.5 215.73-0.5L215.73-0.5 215.73 0 209.28 0 209.28-0.5Q209.63-0.5 209.93-0.8 210.23-1.1 210.45-1.5 210.68-1.9 210.78-2.38 210.88-2.85 210.88-3.25L210.88-3.25 210.88-12.55Q210.88-14.35 210.38-15.7 209.88-17.05 209.03-17.95 208.18-18.85 207.1-19.28 206.03-19.7 204.93-19.7L204.93-19.7Q203.83-19.7 202.75-19.25 201.68-18.8 200.85-18.07 200.03-17.35 199.5-16.38 198.98-15.4 198.98-14.35L198.98-14.35 198.98-3.25Q198.98-2.85 199.08-2.38 199.18-1.9 199.4-1.5 199.63-1.1 199.9-0.8 200.18-0.5 200.58-0.5L200.58-0.5 200.58 0 194.08 0 194.08-0.5Q194.43-0.5 194.73-0.8 195.03-1.1 195.25-1.5 195.48-1.9 195.58-2.38 195.68-2.85 195.68-3.25L195.68-3.25 195.68-17.05Q195.68-17.9 195.43-18.68 195.18-19.45 193.98-19.5L193.98-19.5 193.98-19.95 198.98-21.55 198.98-18.8Q199.33-19.2 199.88-19.68 200.43-20.15 201.2-20.58 201.98-21 203-21.28 204.03-21.55 205.43-21.55L205.43-21.55Q207.78-21.55 209.43-20.75 211.08-19.95 212.13-18.68 213.18-17.4 213.65-15.88 214.13-14.35 214.13-12.9L214.13-12.9ZM240.73-10.1L223.38-10.1Q223.58-8.35 224.23-6.78 224.88-5.2 225.95-4 227.03-2.8 228.58-2.08 230.13-1.35 232.18-1.35L232.18-1.35Q233.28-1.35 234.5-1.68 235.73-2 236.78-2.6 237.83-3.2 238.65-4.08 239.48-4.95 239.78-6.05L239.78-6.05 240.23-6.05 240.23-2.3Q239.93-2.3 239.55-2.1 239.18-1.9 238.68-1.6L238.68-1.6Q237.68-1 235.98-0.33 234.28 0.35 231.48 0.35L231.48 0.35Q229.23 0.35 227.2-0.3 225.18-0.95 223.63-2.3 222.08-3.65 221.15-5.75 220.23-7.85 220.23-10.75L220.23-10.75Q220.23-12.6 220.85-14.5 221.48-16.4 222.75-17.93 224.03-19.45 226.03-20.4 228.03-21.35 230.83-21.35L230.83-21.35Q233.33-21.35 235.2-20.5 237.08-19.65 238.3-18.15 239.53-16.65 240.13-14.6 240.73-12.55 240.73-10.1L240.73-10.1ZM230.63-19.7L230.63-19.7Q228.88-19.7 227.6-19 226.33-18.3 225.43-17.2 224.53-16.1 224.03-14.7 223.53-13.3 223.38-11.9L223.38-11.9 237.63-11.9Q237.58-13.35 237.1-14.75 236.63-16.15 235.78-17.25 234.93-18.35 233.63-19.03 232.33-19.7 230.63-19.7ZM258.57-20.4L257.07-17.35Q256.47-18.35 255.82-18.6 255.17-18.85 254.32-18.85L254.32-18.85Q253.77-18.85 253.15-18.6 252.52-18.35 251.92-17.95 251.32-17.55 250.75-17.07 250.17-16.6 249.77-16.2L249.77-16.2 249.77-3.2Q249.77-2.8 249.87-2.35 249.97-1.9 250.2-1.48 250.42-1.05 250.7-0.78 250.97-0.5 251.37-0.5L251.37-0.5 251.37 0 244.87 0 244.87-0.5Q245.22-0.5 245.52-0.78 245.82-1.05 246.05-1.48 246.27-1.9 246.37-2.35 246.47-2.8 246.47-3.2L246.47-3.2 246.47-17.15Q246.47-17.85 246.02-18.55 245.57-19.25 244.72-19.45L244.72-19.45 244.72-19.85 249.77-21.35 249.77-18.35Q250.22-18.9 250.72-19.43 251.22-19.95 251.85-20.38 252.47-20.8 253.22-21.08 253.97-21.35 254.97-21.35L254.97-21.35Q255.67-21.35 256.77-21.05 257.87-20.75 258.57-20.4L258.57-20.4ZM277.97-5.7L277.97-5.7Q277.97-4.4 277.32-3.3 276.67-2.2 275.55-1.38 274.42-0.55 272.92-0.08 271.42 0.4 269.67 0.4L269.67 0.4Q267.52 0.4 266.17-0.18 264.82-0.75 263.87-1.35L263.87-1.35Q263.22-1.75 262.67-2.02 262.12-2.3 261.47-2.3L261.47-2.3 261.47-6.1 261.97-6.1Q262.12-5.4 262.85-4.58 263.57-3.75 264.6-3.05 265.62-2.35 266.85-1.88 268.07-1.4 269.32-1.4L269.32-1.4Q270.22-1.4 271.17-1.6 272.12-1.8 272.9-2.25 273.67-2.7 274.2-3.38 274.72-4.05 274.72-5L274.72-5Q274.72-5.95 274.17-6.65 273.62-7.35 272.77-7.88 271.92-8.4 270.82-8.8 269.72-9.2 268.62-9.55L268.62-9.55Q267.32-9.95 266-10.45 264.67-10.95 263.62-11.63 262.57-12.3 261.92-13.28 261.27-14.25 261.27-15.6L261.27-15.6Q261.27-16.75 261.7-17.8 262.12-18.85 263.1-19.63 264.07-20.4 265.62-20.88 267.17-21.35 269.37-21.35L269.37-21.35Q271.32-21.35 272.4-21.03 273.47-20.7 274.17-20.35L274.17-20.35Q274.62-20.1 275.07-19.98 275.52-19.85 276.07-19.85L276.07-19.85 276.07-16.35 275.67-16.35Q274.77-18 272.92-18.85 271.07-19.7 269.12-19.7L269.12-19.7Q267.87-19.7 266.97-19.38 266.07-19.05 265.5-18.57 264.92-18.1 264.65-17.5 264.37-16.9 264.37-16.3L264.37-16.3Q264.37-15.45 264.85-14.85 265.32-14.25 266.15-13.8 266.97-13.35 268-12.95 269.02-12.55 270.17-12.2L270.17-12.2Q271.57-11.75 272.97-11.23 274.37-10.7 275.47-9.95 276.57-9.2 277.27-8.18 277.97-7.15 277.97-5.7Z" opacity="1" transform="matrix(1,0,0,1,0,0)" fill="#9c7945" class="wordmark-text-0" data-fill-palette-color="primary" id="text-0"></path></svg></g></svg></g><g transform="matrix(1,0,0,1,170.0736,60.0938083443302)"><svg viewBox="0 0 225.44639999999998 19.78799493670886" height="19.78799493670886" width="225.44639999999998"><g transform="matrix(1,0,0,1,0,0)"><svg width="225.44639999999998" viewBox="1.98 -38.09 555.41 48.760000000000005" height="19.78799493670886" data-palette-color="url(#5e12024c-b8cf-4d84-87cd-70a36247f1f0)"></svg></g></svg></g></svg></g></svg></g><g><svg viewBox="0 0 112.76136533715692 110.39665213439598" height="110.39665213439598" width="112.76136533715692"><g><svg xmlns="http://www.w3.org/2000/svg" xmlns:xlink="http://www.w3.org/1999/xlink" version="1.1" x="0" y="0" viewBox="12.833 13.54 69.334 67.88" enable-background="new 0 0 95 95" xml:space="preserve" height="110.39665213439598" width="112.76136533715692" class="icon-icon-0" data-fill-palette-color="accent" id="icon-0"></svg></g></svg></g></svg></g><defs></defs><mask id="657c11ca-8281-4c34-88b4-c0dd9035ad7b"><g id="SvgjsG4646"><svg viewBox="0 0 395.52 84.00839501904753" height="84.00839501904753" width="395.52"><g><svg viewBox="0 0 519.7585770124067 110.39665213439598" height="84.00839501904753" width="395.52"><g transform="matrix(1,0,0,1,124.23857701240674,15.257424426678462)"><svg viewBox="0 0 395.52 79.88180328103905" height="79.88180328103905" width="395.52"><g id="SvgjsG4645"><svg viewBox="0 0 395.52 79.88180328103905" height="79.88180328103905" width="395.52" id="SvgjsSvg4644"><g><svg viewBox="0 0 395.52 48.61659666908038" height="48.61659666908038" width="395.52"><g transform="matrix(1,0,0,1,0,0)"><svg width="395.52" viewBox="1.8 -33.5 276.17 33.95" height="48.61659666908038" data-palette-color="#9c7945"><path d="M22.5-8.85L22.5-8.85Q22.5-6.35 21.5-4.58 20.5-2.8 18.93-1.7 17.35-0.6 15.38-0.1 13.4 0.4 11.45 0.4L11.45 0.4Q9.45 0.4 8 0 6.55-0.4 5.35-0.75L5.35-0.75Q4.55-1 3.9-1.18 3.25-1.35 2.6-1.35L2.6-1.35 2.6-7.05 3.1-7.05Q3.1-5.15 4.08-4.03 5.05-2.9 6.35-2.3 7.65-1.7 8.95-1.53 10.25-1.35 10.85-1.35L10.85-1.35Q13-1.35 14.55-1.98 16.1-2.6 17.1-3.63 18.1-4.65 18.57-5.9 19.05-7.15 19.05-8.45L19.05-8.45Q19.05-10.1 18.35-11.23 17.65-12.35 16.53-13.2 15.4-14.05 13.95-14.65 12.5-15.25 11-15.85L11-15.85Q9.3-16.5 7.65-17.2 6-17.9 4.7-18.93 3.4-19.95 2.6-21.38 1.8-22.8 1.8-24.9L1.8-24.9Q1.8-27.1 2.65-28.73 3.5-30.35 4.93-31.4 6.35-32.45 8.18-32.98 10-33.5 11.9-33.5L11.9-33.5Q13.2-33.5 14.35-33.33 15.5-33.15 16.55-32.9L16.55-32.9Q17.4-32.7 18.2-32.58 19-32.45 19.75-32.45L19.75-32.45 19.75-27.3 19.25-27.3Q19.15-29.9 17.2-30.83 15.25-31.75 11.8-31.75L11.8-31.75Q9.8-31.75 8.53-31.08 7.25-30.4 6.5-29.43 5.75-28.45 5.48-27.33 5.2-26.2 5.2-25.35L5.2-25.35Q5.2-23.95 5.83-22.95 6.45-21.95 7.5-21.2 8.55-20.45 9.93-19.85 11.3-19.25 12.8-18.7L12.8-18.7Q14.5-18.05 16.25-17.3 18-16.55 19.38-15.45 20.75-14.35 21.63-12.75 22.5-11.15 22.5-8.85ZM46.85-10.1L29.5-10.1Q29.7-8.35 30.35-6.78 31-5.2 32.07-4 33.15-2.8 34.7-2.08 36.25-1.35 38.3-1.35L38.3-1.35Q39.4-1.35 40.62-1.68 41.85-2 42.9-2.6 43.95-3.2 44.77-4.08 45.6-4.95 45.9-6.05L45.9-6.05 46.35-6.05 46.35-2.3Q46.05-2.3 45.67-2.1 45.3-1.9 44.8-1.6L44.8-1.6Q43.8-1 42.1-0.33 40.4 0.35 37.6 0.35L37.6 0.35Q35.35 0.35 33.32-0.3 31.3-0.95 29.75-2.3 28.2-3.65 27.27-5.75 26.35-7.85 26.35-10.75L26.35-10.75Q26.35-12.6 26.97-14.5 27.6-16.4 28.87-17.93 30.15-19.45 32.15-20.4 34.15-21.35 36.95-21.35L36.95-21.35Q39.45-21.35 41.32-20.5 43.2-19.65 44.42-18.15 45.65-16.65 46.25-14.6 46.85-12.55 46.85-10.1L46.85-10.1ZM36.75-19.7L36.75-19.7Q35-19.7 33.72-19 32.45-18.3 31.55-17.2 30.65-16.1 30.15-14.7 29.65-13.3 29.5-11.9L29.5-11.9 43.75-11.9Q43.7-13.35 43.22-14.75 42.75-16.15 41.9-17.25 41.05-18.35 39.75-19.03 38.45-19.7 36.75-19.7ZM61.5 0.35L61.5 0.35Q59 0.35 57-0.48 55-1.3 53.57-2.73 52.15-4.15 51.37-6.1 50.6-8.05 50.6-10.35L50.6-10.35Q50.6-12.8 51.45-14.83 52.3-16.85 53.8-18.3 55.3-19.75 57.35-20.55 59.4-21.35 61.8-21.35L61.8-21.35Q64.2-21.35 66.2-20.58 68.2-19.8 69.65-18.4 71.09-17 71.9-15.08 72.7-13.15 72.7-10.85L72.7-10.85Q72.7-8.7 71.97-6.68 71.25-4.65 69.82-3.1 68.4-1.55 66.32-0.6 64.25 0.35 61.5 0.35ZM61.2-19.7L61.2-19.7Q59.4-19.6 58.02-18.82 56.65-18.05 55.72-16.82 54.8-15.6 54.32-14.05 53.85-12.5 53.85-10.9L53.85-10.9Q53.85-9.05 54.42-7.33 55-5.6 56.07-4.25 57.15-2.9 58.65-2.1 60.15-1.3 62-1.3L62-1.3Q63.85-1.3 65.27-2.1 66.7-2.9 67.65-4.17 68.59-5.45 69.07-7.05 69.55-8.65 69.55-10.25L69.55-10.25Q69.55-11.9 69.05-13.58 68.55-15.25 67.5-16.63 66.45-18 64.87-18.85 63.3-19.7 61.2-19.7ZM96.94-21.55L96.94-3.25Q96.94-2.9 97.04-2.43 97.14-1.95 97.32-1.53 97.49-1.1 97.79-0.8 98.09-0.5 98.49-0.5L98.49-0.5 98.49 0 93.64 0 93.64-2.75Q92.89-1.65 91.44-0.6 89.99 0.45 87.69 0.45L87.69 0.45Q84.79 0.45 83.09-0.55 81.39-1.55 80.49-3.1 79.59-4.65 79.34-6.48 79.09-8.3 79.09-9.9L79.09-9.9 79.09-17.05Q79.09-17.5 79.07-17.93 79.04-18.35 78.87-18.7 78.69-19.05 78.34-19.28 77.99-19.5 77.34-19.5L77.34-19.5 77.34-19.95 82.39-21.55 82.39-8.8Q82.39-5 84.04-3.2 85.69-1.4 88.09-1.4L88.09-1.4Q89.39-1.4 90.42-1.98 91.44-2.55 92.17-3.35 92.89-4.15 93.27-5 93.64-5.85 93.64-6.4L93.64-6.4 93.64-17.05Q93.64-17.5 93.62-17.93 93.59-18.35 93.42-18.7 93.24-19.05 92.89-19.28 92.54-19.5 91.89-19.5L91.89-19.5 91.89-19.95 96.94-21.55ZM110.09 0L103.54 0 103.54-0.5Q103.94-0.5 104.24-0.8 104.54-1.1 104.77-1.5 104.99-1.9 105.09-2.38 105.19-2.85 105.19-3.25L105.19-3.25 105.19-28.85Q105.19-29.7 104.94-30.45 104.69-31.2 103.44-31.25L103.44-31.25 103.44-31.75 108.49-33.3 108.49-3.25Q108.49-2.85 108.59-2.38 108.69-1.9 108.92-1.5 109.14-1.1 109.42-0.8 109.69-0.5 110.09-0.5L110.09-0.5 110.09 0ZM134.69-21.55L134.69-3.25Q134.69-2.9 134.79-2.43 134.89-1.95 135.06-1.53 135.24-1.1 135.54-0.8 135.84-0.5 136.24-0.5L136.24-0.5 136.24 0 131.39 0 131.39-2.75Q130.64-1.65 129.19-0.6 127.74 0.45 125.44 0.45L125.44 0.45Q122.54 0.45 120.84-0.55 119.14-1.55 118.24-3.1 117.34-4.65 117.09-6.48 116.84-8.3 116.84-9.9L116.84-9.9 116.84-17.05Q116.84-17.5 116.81-17.93 116.79-18.35 116.61-18.7 116.44-19.05 116.09-19.28 115.74-19.5 115.09-19.5L115.09-19.5 115.09-19.95 120.14-21.55 120.14-8.8Q120.14-5 121.79-3.2 123.44-1.4 125.84-1.4L125.84-1.4Q127.14-1.4 128.16-1.98 129.19-2.55 129.91-3.35 130.64-4.15 131.01-5 131.39-5.85 131.39-6.4L131.39-6.4 131.39-17.05Q131.39-17.5 131.36-17.93 131.34-18.35 131.16-18.7 130.99-19.05 130.64-19.28 130.29-19.5 129.64-19.5L129.64-19.5 129.64-19.95 134.69-21.55ZM151.59-19.3L145.99-19.3 145.99-7.25Q145.99-5.95 146.04-4.9 146.09-3.85 146.29-3.15 146.49-2.45 146.89-2.08 147.29-1.7 147.99-1.7L147.99-1.7Q149.04-1.7 149.96-2.7 150.89-3.7 151.14-5.1L151.14-5.1 151.59-5.1 151.59-1.45Q151.14-1.45 150.84-1.15L150.84-1.15Q150.44-0.8 149.71-0.4 148.99 0 147.54 0L147.54 0Q145.74 0 144.74-0.7 143.74-1.4 143.29-2.55 142.84-3.7 142.76-5.1 142.69-6.5 142.69-7.95L142.69-7.95 142.69-19.3 139.89-19.3 139.89-21 142.69-21 142.69-25.45Q142.69-26.3 142.46-27.03 142.24-27.75 140.99-27.8L140.99-27.8 140.99-28.3 145.99-29.9 145.99-21 151.59-21 151.59-19.3ZM162.53 0L156.03 0 156.03-0.5Q156.43-0.5 156.73-0.8 157.03-1.1 157.23-1.5 157.43-1.9 157.53-2.38 157.63-2.85 157.63-3.25L157.63-3.25 157.63-17.1Q157.63-17.95 157.38-18.73 157.13-19.5 155.93-19.55L155.93-19.55 155.93-20 160.93-21.6 160.93-3.25Q160.93-2.85 161.03-2.38 161.13-1.9 161.33-1.5 161.53-1.1 161.83-0.8 162.13-0.5 162.53-0.5L162.53-0.5 162.53 0ZM156.28-26.4L156.28-26.4Q156.28-27.4 156.96-28.1 157.63-28.8 158.63-28.8L158.63-28.8Q159.63-28.8 160.33-28.1 161.03-27.4 161.03-26.4L161.03-26.4Q161.03-25.4 160.33-24.75 159.63-24.1 158.63-24.1L158.63-24.1Q157.63-24.1 156.96-24.75 156.28-25.4 156.28-26.4ZM178.38 0.35L178.38 0.35Q175.88 0.35 173.88-0.48 171.88-1.3 170.46-2.73 169.03-4.15 168.26-6.1 167.48-8.05 167.48-10.35L167.48-10.35Q167.48-12.8 168.33-14.83 169.18-16.85 170.68-18.3 172.18-19.75 174.23-20.55 176.28-21.35 178.68-21.35L178.68-21.35Q181.08-21.35 183.08-20.58 185.08-19.8 186.53-18.4 187.98-17 188.78-15.08 189.58-13.15 189.58-10.85L189.58-10.85Q189.58-8.7 188.86-6.68 188.13-4.65 186.71-3.1 185.28-1.55 183.21-0.6 181.13 0.35 178.38 0.35ZM178.08-19.7L178.08-19.7Q176.28-19.6 174.91-18.82 173.53-18.05 172.61-16.82 171.68-15.6 171.21-14.05 170.73-12.5 170.73-10.9L170.73-10.9Q170.73-9.05 171.31-7.33 171.88-5.6 172.96-4.25 174.03-2.9 175.53-2.1 177.03-1.3 178.88-1.3L178.88-1.3Q180.73-1.3 182.16-2.1 183.58-2.9 184.53-4.17 185.48-5.45 185.96-7.05 186.43-8.65 186.43-10.25L186.43-10.25Q186.43-11.9 185.93-13.58 185.43-15.25 184.38-16.63 183.33-18 181.76-18.85 180.18-19.7 178.08-19.7ZM214.13-12.9L214.13-3.25Q214.13-2.85 214.23-2.38 214.33-1.9 214.55-1.5 214.78-1.1 215.05-0.8 215.33-0.5 215.73-0.5L215.73-0.5 215.73 0 209.28 0 209.28-0.5Q209.63-0.5 209.93-0.8 210.23-1.1 210.45-1.5 210.68-1.9 210.78-2.38 210.88-2.85 210.88-3.25L210.88-3.25 210.88-12.55Q210.88-14.35 210.38-15.7 209.88-17.05 209.03-17.95 208.18-18.85 207.1-19.28 206.03-19.7 204.93-19.7L204.93-19.7Q203.83-19.7 202.75-19.25 201.68-18.8 200.85-18.07 200.03-17.35 199.5-16.38 198.98-15.4 198.98-14.35L198.98-14.35 198.98-3.25Q198.98-2.85 199.08-2.38 199.18-1.9 199.4-1.5 199.63-1.1 199.9-0.8 200.18-0.5 200.58-0.5L200.58-0.5 200.58 0 194.08 0 194.08-0.5Q194.43-0.5 194.73-0.8 195.03-1.1 195.25-1.5 195.48-1.9 195.58-2.38 195.68-2.85 195.68-3.25L195.68-3.25 195.68-17.05Q195.68-17.9 195.43-18.68 195.18-19.45 193.98-19.5L193.98-19.5 193.98-19.95 198.98-21.55 198.98-18.8Q199.33-19.2 199.88-19.68 200.43-20.15 201.2-20.58 201.98-21 203-21.28 204.03-21.55 205.43-21.55L205.43-21.55Q207.78-21.55 209.43-20.75 211.08-19.95 212.13-18.68 213.18-17.4 213.65-15.88 214.13-14.35 214.13-12.9L214.13-12.9ZM240.73-10.1L223.38-10.1Q223.58-8.35 224.23-6.78 224.88-5.2 225.95-4 227.03-2.8 228.58-2.08 230.13-1.35 232.18-1.35L232.18-1.35Q233.28-1.35 234.5-1.68 235.73-2 236.78-2.6 237.83-3.2 238.65-4.08 239.48-4.95 239.78-6.05L239.78-6.05 240.23-6.05 240.23-2.3Q239.93-2.3 239.55-2.1 239.18-1.9 238.68-1.6L238.68-1.6Q237.68-1 235.98-0.33 234.28 0.35 231.48 0.35L231.48 0.35Q229.23 0.35 227.2-0.3 225.18-0.95 223.63-2.3 222.08-3.65 221.15-5.75 220.23-7.85 220.23-10.75L220.23-10.75Q220.23-12.6 220.85-14.5 221.48-16.4 222.75-17.93 224.03-19.45 226.03-20.4 228.03-21.35 230.83-21.35L230.83-21.35Q233.33-21.35 235.2-20.5 237.08-19.65 238.3-18.15 239.53-16.65 240.13-14.6 240.73-12.55 240.73-10.1L240.73-10.1ZM230.63-19.7L230.63-19.7Q228.88-19.7 227.6-19 226.33-18.3 225.43-17.2 224.53-16.1 224.03-14.7 223.53-13.3 223.38-11.9L223.38-11.9 237.63-11.9Q237.58-13.35 237.1-14.75 236.63-16.15 235.78-17.25 234.93-18.35 233.63-19.03 232.33-19.7 230.63-19.7ZM258.57-20.4L257.07-17.35Q256.47-18.35 255.82-18.6 255.17-18.85 254.32-18.85L254.32-18.85Q253.77-18.85 253.15-18.6 252.52-18.35 251.92-17.95 251.32-17.55 250.75-17.07 250.17-16.6 249.77-16.2L249.77-16.2 249.77-3.2Q249.77-2.8 249.87-2.35 249.97-1.9 250.2-1.48 250.42-1.05 250.7-0.78 250.97-0.5 251.37-0.5L251.37-0.5 251.37 0 244.87 0 244.87-0.5Q245.22-0.5 245.52-0.78 245.82-1.05 246.05-1.48 246.27-1.9 246.37-2.35 246.47-2.8 246.47-3.2L246.47-3.2 246.47-17.15Q246.47-17.85 246.02-18.55 245.57-19.25 244.72-19.45L244.72-19.45 244.72-19.85 249.77-21.35 249.77-18.35Q250.22-18.9 250.72-19.43 251.22-19.95 251.85-20.38 252.47-20.8 253.22-21.08 253.97-21.35 254.97-21.35L254.97-21.35Q255.67-21.35 256.77-21.05 257.87-20.75 258.57-20.4L258.57-20.4ZM277.97-5.7L277.97-5.7Q277.97-4.4 277.32-3.3 276.67-2.2 275.55-1.38 274.42-0.55 272.92-0.08 271.42 0.4 269.67 0.4L269.67 0.4Q267.52 0.4 266.17-0.18 264.82-0.75 263.87-1.35L263.87-1.35Q263.22-1.75 262.67-2.02 262.12-2.3 261.47-2.3L261.47-2.3 261.47-6.1 261.97-6.1Q262.12-5.4 262.85-4.58 263.57-3.75 264.6-3.05 265.62-2.35 266.85-1.88 268.07-1.4 269.32-1.4L269.32-1.4Q270.22-1.4 271.17-1.6 272.12-1.8 272.9-2.25 273.67-2.7 274.2-3.38 274.72-4.05 274.72-5L274.72-5Q274.72-5.95 274.17-6.65 273.62-7.35 272.77-7.88 271.92-8.4 270.82-8.8 269.72-9.2 268.62-9.55L268.62-9.55Q267.32-9.95 266-10.45 264.67-10.95 263.62-11.63 262.57-12.3 261.92-13.28 261.27-14.25 261.27-15.6L261.27-15.6Q261.27-16.75 261.7-17.8 262.12-18.85 263.1-19.63 264.07-20.4 265.62-20.88 267.17-21.35 269.37-21.35L269.37-21.35Q271.32-21.35 272.4-21.03 273.47-20.7 274.17-20.35L274.17-20.35Q274.62-20.1 275.07-19.98 275.52-19.85 276.07-19.85L276.07-19.85 276.07-16.35 275.67-16.35Q274.77-18 272.92-18.85 271.07-19.7 269.12-19.7L269.12-19.7Q267.87-19.7 266.97-19.38 266.07-19.05 265.5-18.57 264.92-18.1 264.65-17.5 264.37-16.9 264.37-16.3L264.37-16.3Q264.37-15.45 264.85-14.85 265.32-14.25 266.15-13.8 266.97-13.35 268-12.95 269.02-12.55 270.17-12.2L270.17-12.2Q271.57-11.75 272.97-11.23 274.37-10.7 275.47-9.95 276.57-9.2 277.27-8.18 277.97-7.15 277.97-5.7Z" opacity="1" transform="matrix(1,0,0,1,0,0)" fill="black" class="wordmark-text-0" id="SvgjsPath4643"></path></svg></g></svg></g><g transform="matrix(1,0,0,1,170.0736,60.0938083443302)"><svg viewBox="0 0 225.44639999999998 19.78799493670886" height="19.78799493670886" width="225.44639999999998"><g transform="matrix(1,0,0,1,0,0)"><svg width="225.44639999999998" viewBox="1.98 -38.09 555.41 48.760000000000005" height="19.78799493670886" data-palette-color="url(#5e12024c-b8cf-4d84-87cd-70a36247f1f0)"><path d="M36.55 0L23.78 0 23.78-3.08 27.76-3.76 27.76-15.7 10.77-15.7 10.77-3.76 14.75-3.08 14.75 0 1.98 0 1.98-3.08 5.96-3.76 5.96-31.76 1.98-32.45 1.98-35.55 14.75-35.55 14.75-32.45 10.77-31.76 10.77-19.48 27.76-19.48 27.76-31.76 23.78-32.45 23.78-35.55 36.55-35.55 36.55-32.45 32.57-31.76 32.57-3.76 36.55-3.08 36.55 0ZM52.37 0.51L52.37 0.51Q48.7 0.51 45.99-1.17L45.99-1.17Q43.28-2.83 41.81-5.81 40.33-8.79 40.33-12.7L40.33-12.7 40.33-13.77Q40.33-17.55 41.89-20.51L41.89-20.51Q43.43-23.49 46.01-25.2 48.58-26.9 51.63-26.9L51.63-26.9Q55.2-26.9 57.61-25.44L57.61-25.44Q60.01-23.97 61.23-21.33 62.45-18.68 62.45-15.09L62.45-15.09 62.45-12.08 45.31-12.08 45.24-11.96Q45.26-9.47 46.14-7.47L46.14-7.47Q46.99-5.49 48.57-4.37 50.14-3.25 52.37-3.25L52.37-3.25Q54.81-3.25 56.65-3.94 58.49-4.64 59.84-5.86L59.84-5.86 61.72-2.73Q60.3-1.37 57.97-0.43 55.64 0.51 52.37 0.51ZM45.41-15.97L45.41-15.97 45.46-15.84 57.64-15.84 57.64-16.48Q57.64-18.41 56.98-19.9L56.98-19.9Q56.3-21.41 54.97-22.27 53.64-23.12 51.63-23.12L51.63-23.12Q50.05-23.12 48.7-22.19L48.7-22.19Q45.97-20.21 45.41-15.97ZM74.92-18.73L74.92-18.73 74.92-3.76 78.9-3.08 78.9 0 66.13 0 66.13-3.08 70.11-3.76 70.11-22.63 66.13-23.32 66.13-26.42 74.41-26.42 74.82-23.05 74.87-22.58Q76-24.61 77.64-25.76 79.29-26.9 81.42-26.9L81.42-26.9Q82.17-26.9 82.97-26.77 83.76-26.64 84.1-26.51L84.1-26.51 83.47-22.05 80.12-22.24Q78.22-22.36 76.92-21.37 75.63-20.39 74.92-18.73ZM95.65-32.93L90.59-32.93 90.59-38.09 95.65-38.09 95.65-32.93ZM86.86-3.08L90.84-3.76 90.84-22.63 86.86-23.32 86.86-26.42 95.65-26.42 95.65-3.76 99.63-3.08 99.63 0 86.86 0 86.86-3.08ZM112.27 0.42L112.27 0.42Q109.34 0.42 107.62-1.31 105.9-3.03 105.9-6.81L105.9-6.81 105.9-22.85 101.72-22.85 101.72-26.42 105.9-26.42 105.9-32.79 110.71-32.79 110.71-26.42 116.45-26.42 116.45-22.85 110.71-22.85 110.71-6.81Q110.71-4.91 111.46-4 112.22-3.1 113.49-3.1L113.49-3.1Q114.35-3.1 115.4-3.26 116.45-3.42 117.03-3.54L117.03-3.54 117.69-0.39Q116.64-0.07 115.11 0.17 113.59 0.42 112.27 0.42ZM129.31 0.51L129.31 0.51Q125.18 0.51 123.03-1.5 120.89-3.52 120.89-7.18L120.89-7.18Q120.89-9.72 122.28-11.57L122.28-11.57Q123.64-13.45 126.26-14.48 128.87-15.5 132.51-15.5L132.51-15.5 137.22-15.5 137.22-18.09Q137.22-20.48 135.77-21.8 134.31-23.12 131.68-23.12L131.68-23.12Q130.02-23.12 128.8-22.72 127.58-22.31 126.57-21.61L126.57-21.61 126.06-17.92 122.35-17.92 122.35-23.97Q125.94-26.9 131.75-26.9L131.75-26.9Q136.56-26.9 139.29-24.61 142.03-22.31 142.03-18.04L142.03-18.04 142.03-5.32Q142.03-4.81 142.04-4.32 142.05-3.83 142.1-3.34L142.1-3.34 144.67-3.08 144.67 0 137.76 0Q137.34-2 137.24-3.64L137.24-3.64Q135.85-1.86 133.76-0.67 131.68 0.51 129.31 0.51ZM130.02-3.52L130.02-3.52Q132.41-3.52 134.39-4.66 136.36-5.81 137.22-7.42L137.22-7.42 137.22-12.21 132.34-12.21Q129.02-12.21 127.36-10.62 125.7-9.03 125.7-7.08L125.7-7.08Q125.7-3.52 130.02-3.52ZM166.93-26.42L174.25-26.42 174.25-23.34 170.98-22.63 170.98-0.34Q170.98 3.1 169.71 5.54L169.71 5.54Q168.44 8.01 165.98 9.34 163.51 10.67 159.99 10.67L159.99 10.67Q158.09 10.67 155.87 10.14 153.65 9.62 151.96 8.72L151.96 8.72 153.21 4.98Q154.55 5.69 156.38 6.15 158.21 6.62 159.95 6.62L159.95 6.62Q163.17 6.62 164.67 4.81 166.17 3 166.17-0.34L166.17-0.34 166.17-2.86Q163.53 0.51 158.92 0.51L158.92 0.51Q155.7 0.51 153.35-1.1L153.35-1.1Q151.01-2.69 149.75-5.55 148.5-8.42 148.5-12.21L148.5-12.21 148.5-12.72Q148.5-17.02 149.77-20.17L149.77-20.17Q151.01-23.36 153.35-25.13 155.7-26.9 158.97-26.9L158.97-26.9Q163.88-26.9 166.49-23.1L166.49-23.1 166.93-26.42ZM166.17-7.18L166.17-7.18 166.17-19.34Q165.24-21.02 163.75-22.01 162.27-23 160.17-23L160.17-23Q157.87-23 156.36-21.68L156.36-21.68Q154.82-20.36 154.06-18.05 153.31-15.75 153.31-12.72L153.31-12.72 153.31-12.21Q153.31-8.23 154.99-5.81 156.67-3.39 160.12-3.39L160.12-3.39Q162.29-3.39 163.75-4.38 165.22-5.37 166.17-7.18ZM188.68 0.51L188.68 0.51Q185.02 0.51 182.31-1.17L182.31-1.17Q179.6-2.83 178.12-5.81 176.64-8.79 176.64-12.7L176.64-12.7 176.64-13.77Q176.64-17.55 178.21-20.51L178.21-20.51Q179.74-23.49 182.32-25.2 184.89-26.9 187.95-26.9L187.95-26.9Q191.51-26.9 193.93-25.44L193.93-25.44Q196.32-23.97 197.54-21.33 198.76-18.68 198.76-15.09L198.76-15.09 198.76-12.08 181.62-12.08 181.55-11.96Q181.57-9.47 182.45-7.47L182.45-7.47Q183.31-5.49 184.88-4.37 186.46-3.25 188.68-3.25L188.68-3.25Q191.12-3.25 192.96-3.94 194.81-4.64 196.15-5.86L196.15-5.86 198.03-2.73Q196.61-1.37 194.28-0.43 191.95 0.51 188.68 0.51ZM181.72-15.97L181.72-15.97 181.77-15.84 193.95-15.84 193.95-16.48Q193.95-18.41 193.29-19.9L193.29-19.9Q192.61-21.41 191.28-22.27 189.95-23.12 187.95-23.12L187.95-23.12Q186.36-23.12 185.02-22.19L185.02-22.19Q182.28-20.21 181.72-15.97ZM228.2-32.93L223.15-32.93 223.15-38.09 228.2-38.09 228.2-32.93ZM219.41-3.08L223.39-3.76 223.39-22.63 219.41-23.32 219.41-26.42 228.2-26.42 228.2-3.76 232.18-3.08 232.18 0 219.41 0 219.41-3.08ZM244.29-19.26L244.29-19.26 244.29-3.76 248.27-3.08 248.27 0 235.5 0 235.5-3.08 239.48-3.76 239.48-22.63 235.5-23.32 235.5-26.42 243.77-26.42 244.12-22.49Q245.43-24.58 247.42-25.74 249.41-26.9 251.95-26.9L251.95-26.9Q256.23-26.9 258.57-24.4 260.91-21.9 260.91-16.67L260.91-16.67 260.91-3.76 264.89-3.08 264.89 0 252.12 0 252.12-3.08 256.1-3.76 256.1-16.58Q256.1-20.07 254.72-21.53 253.34-23 250.51-23L250.51-23Q248.44-23 246.84-22 245.24-21 244.29-19.26ZM294.33-20.26L307.44-20.26 307.44-16.48 294.33-16.48 294.33-3.61 308.25-3.61 308.78-8.52 312.62-8.52 312.62 0 285.54 0 285.54-3.08 289.52-3.76 289.52-31.76 285.54-32.45 285.54-35.55 311.86-35.55 311.86-27 308-27 307.47-31.84 294.33-31.84 294.33-20.26ZM330.41-5.66L331.19-7.79 336.64-22.83 333.1-23.32 333.1-26.42 344.16-26.42 344.16-23.32 341.37-22.95 332.44 0 328.21 0 318.82-22.95 316.08-23.32 316.08-26.42 327.16-26.42 327.16-23.32 323.72-22.83 329.58-7.79 330.27-5.66 330.41-5.66ZM358.73 0.51L358.73 0.51Q355.07 0.51 352.36-1.17L352.36-1.17Q349.65-2.83 348.17-5.81 346.69-8.79 346.69-12.7L346.69-12.7 346.69-13.77Q346.69-17.55 348.26-20.51L348.26-20.51Q349.79-23.49 352.37-25.2 354.95-26.9 358-26.9L358-26.9Q361.56-26.9 363.98-25.44L363.98-25.44Q366.37-23.97 367.59-21.33 368.81-18.68 368.81-15.09L368.81-15.09 368.81-12.08 351.67-12.08 351.6-11.96Q351.63-9.47 352.5-7.47L352.5-7.47Q353.36-5.49 354.93-4.37 356.51-3.25 358.73-3.25L358.73-3.25Q361.17-3.25 363.01-3.94 364.86-4.64 366.2-5.86L366.2-5.86 368.08-2.73Q366.66-1.37 364.33-0.43 362 0.51 358.73 0.51ZM351.77-15.97L351.77-15.97 351.82-15.84 364-15.84 364-16.48Q364-18.41 363.34-19.9L363.34-19.9Q362.66-21.41 361.33-22.27 360-23.12 358-23.12L358-23.12Q356.41-23.12 355.07-22.19L355.07-22.19Q352.33-20.21 351.77-15.97ZM381.29-18.73L381.29-18.73 381.29-3.76 385.27-3.08 385.27 0 372.5 0 372.5-3.08 376.48-3.76 376.48-22.63 372.5-23.32 372.5-26.42 380.77-26.42 381.19-23.05 381.24-22.58Q382.36-24.61 384.01-25.76 385.66-26.9 387.78-26.9L387.78-26.9Q388.54-26.9 389.33-26.77 390.12-26.64 390.47-26.51L390.47-26.51 389.83-22.05 386.49-22.24Q384.58-22.36 383.29-21.37 381.99-20.39 381.29-18.73ZM399.13 10.67L399.13 10.67Q398.57 10.67 397.67 10.53 396.76 10.4 396.27 10.28L396.27 10.28 396.76 6.49Q397.18 6.54 397.91 6.58 398.64 6.62 398.91 6.62L398.91 6.62Q400.45 6.62 401.41 5.44 402.38 4.27 403.21 2.25L403.21 2.25 404.35-0.54 395-22.92 392.17-23.32 392.17-26.42 403.26-26.42 403.26-23.32 400.06-22.83 405.21-9.62 406.45-6.18 406.6-6.18 412.7-22.83 409.34-23.32 409.34-26.42 420.2-26.42 420.2-23.32 417.46-22.92 407.06 4.05Q406.33 5.98 405.31 7.47L405.31 7.47Q404.26 8.96 402.76 9.81 401.25 10.67 399.13 10.67ZM455.79 0.51L455.79 0.51Q450.86 0.51 447.25-1.78L447.25-1.78Q443.63-4.05 441.68-8.11 439.73-12.16 439.73-17.48L439.73-17.48 439.73-18.07Q439.73-23.44 441.7-27.49L441.7-27.49Q443.66-31.52 447.07-33.79 450.49-36.06 454.84-36.06L454.84-36.06Q458.99-36.06 461.88-35.11 464.77-34.16 466.83-32.54L466.83-32.54 466.83-25.37 462.87-25.37 462.36-30.52Q459.96-32.1 455.33-32.1L455.33-32.1Q452.3-32.1 449.83-30.35L449.83-30.35Q447.39-28.59 445.98-25.45 444.56-22.31 444.56-18.12L444.56-18.12 444.56-17.48Q444.56-13.23 445.88-10.08L445.88-10.08Q447.17-6.91 449.69-5.16 452.2-3.42 455.79-3.42L455.79-3.42Q458.23-3.42 459.92-3.85 461.6-4.27 462.89-4.96L462.89-4.96 462.89-13.31 456.08-13.55 456.08-17.09 467.7-17.09 467.7-3.32Q466.17-1.88 463.3-0.68 460.43 0.51 455.79 0.51ZM472.19-3.08L476.17-3.76 476.17-34.3 472.19-34.99 472.19-38.09 480.98-38.09 480.98-3.76 484.96-3.08 484.96 0 472.19 0 472.19-3.08ZM500.32 0.51L500.32 0.51Q496.68 0.51 494.02-1.22L494.02-1.22Q491.36-2.95 489.92-5.98 488.48-9.01 488.48-12.92L488.48-12.92 488.48-13.45Q488.48-17.33 489.92-20.41L489.92-20.41Q491.36-23.46 494.01-25.18 496.65-26.9 500.27-26.9L500.27-26.9Q503.91-26.9 506.59-25.17L506.59-25.17Q509.23-23.44 510.67-20.41 512.11-17.38 512.11-13.45L512.11-13.45 512.11-12.92Q512.11-9.03 510.67-5.96L510.67-5.96Q509.23-2.93 506.59-1.21 503.95 0.51 500.32 0.51ZM500.32-3.25L500.32-3.25Q502.61-3.25 504.17-4.52L504.17-4.52Q505.71-5.76 506.51-7.95 507.3-10.13 507.3-12.92L507.3-12.92 507.3-13.45Q507.3-16.21 506.52-18.43L506.52-18.43Q505.71-20.61 504.15-21.86 502.59-23.12 500.27-23.12L500.27-23.12Q498-23.12 496.41-21.88L496.41-21.88Q494.85-20.61 494.07-18.42 493.28-16.24 493.28-13.45L493.28-13.45 493.28-12.92Q493.28-10.16 494.07-7.96L494.07-7.96Q494.85-5.76 496.42-4.5 498-3.25 500.32-3.25ZM557.39-23.32L554.46-22.9 547.63 0 543.06 0 537.72-15.87 536.45-20.12 536.3-20.09 535.05-15.87 529.32 0 525.19 0 518.23-22.97 515.28-23.32 515.28-26.42 526.19-26.42 526.19-23.32 522.95-22.78 526.58-9.62 527.41-6.49 527.56-6.49 528.63-9.62 534.37-26.42 538.42-26.42 543.89-9.67 545.06-5.96 545.21-5.96 546.36-9.67 550.05-22.8 546.72-23.32 546.72-26.42 557.39-26.42 557.39-23.32Z" opacity="1" transform="matrix(1,0,0,1,0,0)" fill="white" class="slogan-text-1" id="SvgjsPath4642"></path></svg></g></svg></g></svg></g></svg></g><g><svg viewBox="0 0 112.76136533715692 110.39665213439598" height="110.39665213439598" width="112.76136533715692"><g><svg xmlns="http://www.w3.org/2000/svg" xmlns:xlink="http://www.w3.org/1999/xlink" version="1.1" x="0" y="0" viewBox="12.833 13.54 69.334 67.88" enable-background="new 0 0 95 95" xml:space="preserve" height="110.39665213439598" width="112.76136533715692" class="icon-icon-0" data-fill-palette-color="accent" id="SvgjsSvg4641"><g fill="black"><path d="M35.784 69.836C35.83 69.836 35.879 69.826 35.927 69.809 36.143 69.828 36.362 69.836 36.583 69.836 40.948 69.836 44.5 66.284 44.5 61.919 44.5 61.016 44.341 60.115 44.027 59.244A8 8 0 0 0 43.365 57.849C43.172 57.099 43.3 56.419 43.747 55.829 44.375 54.999 45.595 54.455 47.001 54.349V80.92A0.5 0.5 0 0 0 48.001 80.92V54.352C49.406 54.457 50.626 55.002 51.253 55.831 51.7 56.421 51.828 57.1 51.635 57.85 51.37 58.29 51.149 58.759 50.973 59.246A7.9 7.9 0 0 0 50.5 61.92C50.5 66.285 54.052 69.837 58.417 69.837 58.633 69.837 58.846 69.828 59.057 69.811A0.5 0.5 0 0 0 59.216 69.837C70.498 69.837 82.167 60.608 82.167 45.163 82.167 30.235 67.342 13.54 47.5 13.54S12.833 30.234 12.833 45.162C12.833 60.605 24.502 69.836 35.784 69.836M48.001 14.552C67.018 14.831 81.167 30.833 81.167 45.162 81.167 59.905 70.118 68.746 59.379 68.835A0.5 0.5 0 0 0 59.133 68.799 7 7 0 0 1 58.417 68.836C54.604 68.836 51.5 65.732 51.5 61.919 51.5 61.132 51.641 60.346 51.914 59.582 52.073 59.139 52.279 58.71 52.523 58.311A0.6 0.6 0 0 0 52.58 58.184C52.883 57.108 52.699 56.084 52.051 55.229 51.229 54.143 49.738 53.463 48.001 53.352zM47.001 14.552V53.352C45.265 53.463 43.772 54.143 42.949 55.229 42.301 56.084 42.117 57.108 42.42 58.184A0.5 0.5 0 0 0 42.476 58.311C42.721 58.71 42.927 59.139 43.086 59.582 43.36 60.346 43.5 61.132 43.5 61.919A6.926 6.926 0 0 1 35.867 68.799 0.43 0.43 0 0 0 35.648 68.836C24.901 68.762 13.833 59.918 13.833 45.162 13.833 30.833 27.984 14.83 47.001 14.552" fill="black"></path></g></svg></g></svg></g></svg></g><defs><mask></mask></defs></svg><rect width="395.52" height="84.00839501904753" fill="black" stroke="none" visibility="hidden"></rect></g></mask><linearGradient x1="0.054" x2="0.941" y1="0.5" y2="0.5" id="5e12024c-b8cf-4d84-87cd-70a36247f1f0"><stop stop-color="#9c7945" offset="0"></stop><stop stop-color="#faf3aa" offset="0.498"></stop><stop stop-color="#9c7945" offset="1"></stop></linearGradient><rect width="395.52" height="84.00839501904753" fill="url(#5e12024c-b8cf-4d84-87cd-70a36247f1f0)" mask="url(#657c11ca-8281-4c34-88b4-c0dd9035ad7b)" data-fill-palette-color="secondary"></rect><mask id="65ced29e-5808-424e-9a6c-5d64c54eadc2"><g id="SvgjsG4657"><svg viewBox="0 0 395.52 84.00839501904753" height="84.00839501904753" width="395.52"><g><svg viewBox="0 0 519.7585770124067 110.39665213439598" height="84.00839501904753" width="395.52"><g transform="matrix(1,0,0,1,124.23857701240674,15.257424426678462)"><svg viewBox="0 0 395.52 79.88180328103905" height="79.88180328103905" width="395.52"><g id="SvgjsG4656"><svg viewBox="0 0 395.52 79.88180328103905" height="79.88180328103905" width="395.52" id="SvgjsSvg4655"><g><svg viewBox="0 0 395.52 48.61659666908038" height="48.61659666908038" width="395.52"><g transform="matrix(1,0,0,1,0,0)"><svg width="395.52" viewBox="1.8 -33.5 276.17 33.95" height="48.61659666908038" data-palette-color="#9c7945"><path d="M22.5-8.85L22.5-8.85Q22.5-6.35 21.5-4.58 20.5-2.8 18.93-1.7 17.35-0.6 15.38-0.1 13.4 0.4 11.45 0.4L11.45 0.4Q9.45 0.4 8 0 6.55-0.4 5.35-0.75L5.35-0.75Q4.55-1 3.9-1.18 3.25-1.35 2.6-1.35L2.6-1.35 2.6-7.05 3.1-7.05Q3.1-5.15 4.08-4.03 5.05-2.9 6.35-2.3 7.65-1.7 8.95-1.53 10.25-1.35 10.85-1.35L10.85-1.35Q13-1.35 14.55-1.98 16.1-2.6 17.1-3.63 18.1-4.65 18.57-5.9 19.05-7.15 19.05-8.45L19.05-8.45Q19.05-10.1 18.35-11.23 17.65-12.35 16.53-13.2 15.4-14.05 13.95-14.65 12.5-15.25 11-15.85L11-15.85Q9.3-16.5 7.65-17.2 6-17.9 4.7-18.93 3.4-19.95 2.6-21.38 1.8-22.8 1.8-24.9L1.8-24.9Q1.8-27.1 2.65-28.73 3.5-30.35 4.93-31.4 6.35-32.45 8.18-32.98 10-33.5 11.9-33.5L11.9-33.5Q13.2-33.5 14.35-33.33 15.5-33.15 16.55-32.9L16.55-32.9Q17.4-32.7 18.2-32.58 19-32.45 19.75-32.45L19.75-32.45 19.75-27.3 19.25-27.3Q19.15-29.9 17.2-30.83 15.25-31.75 11.8-31.75L11.8-31.75Q9.8-31.75 8.53-31.08 7.25-30.4 6.5-29.43 5.75-28.45 5.48-27.33 5.2-26.2 5.2-25.35L5.2-25.35Q5.2-23.95 5.83-22.95 6.45-21.95 7.5-21.2 8.55-20.45 9.93-19.85 11.3-19.25 12.8-18.7L12.8-18.7Q14.5-18.05 16.25-17.3 18-16.55 19.38-15.45 20.75-14.35 21.63-12.75 22.5-11.15 22.5-8.85ZM46.85-10.1L29.5-10.1Q29.7-8.35 30.35-6.78 31-5.2 32.07-4 33.15-2.8 34.7-2.08 36.25-1.35 38.3-1.35L38.3-1.35Q39.4-1.35 40.62-1.68 41.85-2 42.9-2.6 43.95-3.2 44.77-4.08 45.6-4.95 45.9-6.05L45.9-6.05 46.35-6.05 46.35-2.3Q46.05-2.3 45.67-2.1 45.3-1.9 44.8-1.6L44.8-1.6Q43.8-1 42.1-0.33 40.4 0.35 37.6 0.35L37.6 0.35Q35.35 0.35 33.32-0.3 31.3-0.95 29.75-2.3 28.2-3.65 27.27-5.75 26.35-7.85 26.35-10.75L26.35-10.75Q26.35-12.6 26.97-14.5 27.6-16.4 28.87-17.93 30.15-19.45 32.15-20.4 34.15-21.35 36.95-21.35L36.95-21.35Q39.45-21.35 41.32-20.5 43.2-19.65 44.42-18.15 45.65-16.65 46.25-14.6 46.85-12.55 46.85-10.1L46.85-10.1ZM36.75-19.7L36.75-19.7Q35-19.7 33.72-19 32.45-18.3 31.55-17.2 30.65-16.1 30.15-14.7 29.65-13.3 29.5-11.9L29.5-11.9 43.75-11.9Q43.7-13.35 43.22-14.75 42.75-16.15 41.9-17.25 41.05-18.35 39.75-19.03 38.45-19.7 36.75-19.7ZM61.5 0.35L61.5 0.35Q59 0.35 57-0.48 55-1.3 53.57-2.73 52.15-4.15 51.37-6.1 50.6-8.05 50.6-10.35L50.6-10.35Q50.6-12.8 51.45-14.83 52.3-16.85 53.8-18.3 55.3-19.75 57.35-20.55 59.4-21.35 61.8-21.35L61.8-21.35Q64.2-21.35 66.2-20.58 68.2-19.8 69.65-18.4 71.09-17 71.9-15.08 72.7-13.15 72.7-10.85L72.7-10.85Q72.7-8.7 71.97-6.68 71.25-4.65 69.82-3.1 68.4-1.55 66.32-0.6 64.25 0.35 61.5 0.35ZM61.2-19.7L61.2-19.7Q59.4-19.6 58.02-18.82 56.65-18.05 55.72-16.82 54.8-15.6 54.32-14.05 53.85-12.5 53.85-10.9L53.85-10.9Q53.85-9.05 54.42-7.33 55-5.6 56.07-4.25 57.15-2.9 58.65-2.1 60.15-1.3 62-1.3L62-1.3Q63.85-1.3 65.27-2.1 66.7-2.9 67.65-4.17 68.59-5.45 69.07-7.05 69.55-8.65 69.55-10.25L69.55-10.25Q69.55-11.9 69.05-13.58 68.55-15.25 67.5-16.63 66.45-18 64.87-18.85 63.3-19.7 61.2-19.7ZM96.94-21.55L96.94-3.25Q96.94-2.9 97.04-2.43 97.14-1.95 97.32-1.53 97.49-1.1 97.79-0.8 98.09-0.5 98.49-0.5L98.49-0.5 98.49 0 93.64 0 93.64-2.75Q92.89-1.65 91.44-0.6 89.99 0.45 87.69 0.45L87.69 0.45Q84.79 0.45 83.09-0.55 81.39-1.55 80.49-3.1 79.59-4.65 79.34-6.48 79.09-8.3 79.09-9.9L79.09-9.9 79.09-17.05Q79.09-17.5 79.07-17.93 79.04-18.35 78.87-18.7 78.69-19.05 78.34-19.28 77.99-19.5 77.34-19.5L77.34-19.5 77.34-19.95 82.39-21.55 82.39-8.8Q82.39-5 84.04-3.2 85.69-1.4 88.09-1.4L88.09-1.4Q89.39-1.4 90.42-1.98 91.44-2.55 92.17-3.35 92.89-4.15 93.27-5 93.64-5.85 93.64-6.4L93.64-6.4 93.64-17.05Q93.64-17.5 93.62-17.93 93.59-18.35 93.42-18.7 93.24-19.05 92.89-19.28 92.54-19.5 91.89-19.5L91.89-19.5 91.89-19.95 96.94-21.55ZM110.09 0L103.54 0 103.54-0.5Q103.94-0.5 104.24-0.8 104.54-1.1 104.77-1.5 104.99-1.9 105.09-2.38 105.19-2.85 105.19-3.25L105.19-3.25 105.19-28.85Q105.19-29.7 104.94-30.45 104.69-31.2 103.44-31.25L103.44-31.25 103.44-31.75 108.49-33.3 108.49-3.25Q108.49-2.85 108.59-2.38 108.69-1.9 108.92-1.5 109.14-1.1 109.42-0.8 109.69-0.5 110.09-0.5L110.09-0.5 110.09 0ZM134.69-21.55L134.69-3.25Q134.69-2.9 134.79-2.43 134.89-1.95 135.06-1.53 135.24-1.1 135.54-0.8 135.84-0.5 136.24-0.5L136.24-0.5 136.24 0 131.39 0 131.39-2.75Q130.64-1.65 129.19-0.6 127.74 0.45 125.44 0.45L125.44 0.45Q122.54 0.45 120.84-0.55 119.14-1.55 118.24-3.1 117.34-4.65 117.09-6.48 116.84-8.3 116.84-9.9L116.84-9.9 116.84-17.05Q116.84-17.5 116.81-17.93 116.79-18.35 116.61-18.7 116.44-19.05 116.09-19.28 115.74-19.5 115.09-19.5L115.09-19.5 115.09-19.95 120.14-21.55 120.14-8.8Q120.14-5 121.79-3.2 123.44-1.4 125.84-1.4L125.84-1.4Q127.14-1.4 128.16-1.98 129.19-2.55 129.91-3.35 130.64-4.15 131.01-5 131.39-5.85 131.39-6.4L131.39-6.4 131.39-17.05Q131.39-17.5 131.36-17.93 131.34-18.35 131.16-18.7 130.99-19.05 130.64-19.28 130.29-19.5 129.64-19.5L129.64-19.5 129.64-19.95 134.69-21.55ZM151.59-19.3L145.99-19.3 145.99-7.25Q145.99-5.95 146.04-4.9 146.09-3.85 146.29-3.15 146.49-2.45 146.89-2.08 147.29-1.7 147.99-1.7L147.99-1.7Q149.04-1.7 149.96-2.7 150.89-3.7 151.14-5.1L151.14-5.1 151.59-5.1 151.59-1.45Q151.14-1.45 150.84-1.15L150.84-1.15Q150.44-0.8 149.71-0.4 148.99 0 147.54 0L147.54 0Q145.74 0 144.74-0.7 143.74-1.4 143.29-2.55 142.84-3.7 142.76-5.1 142.69-6.5 142.69-7.95L142.69-7.95 142.69-19.3 139.89-19.3 139.89-21 142.69-21 142.69-25.45Q142.69-26.3 142.46-27.03 142.24-27.75 140.99-27.8L140.99-27.8 140.99-28.3 145.99-29.9 145.99-21 151.59-21 151.59-19.3ZM162.53 0L156.03 0 156.03-0.5Q156.43-0.5 156.73-0.8 157.03-1.1 157.23-1.5 157.43-1.9 157.53-2.38 157.63-2.85 157.63-3.25L157.63-3.25 157.63-17.1Q157.63-17.95 157.38-18.73 157.13-19.5 155.93-19.55L155.93-19.55 155.93-20 160.93-21.6 160.93-3.25Q160.93-2.85 161.03-2.38 161.13-1.9 161.33-1.5 161.53-1.1 161.83-0.8 162.13-0.5 162.53-0.5L162.53-0.5 162.53 0ZM156.28-26.4L156.28-26.4Q156.28-27.4 156.96-28.1 157.63-28.8 158.63-28.8L158.63-28.8Q159.63-28.8 160.33-28.1 161.03-27.4 161.03-26.4L161.03-26.4Q161.03-25.4 160.33-24.75 159.63-24.1 158.63-24.1L158.63-24.1Q157.63-24.1 156.96-24.75 156.28-25.4 156.28-26.4ZM178.38 0.35L178.38 0.35Q175.88 0.35 173.88-0.48 171.88-1.3 170.46-2.73 169.03-4.15 168.26-6.1 167.48-8.05 167.48-10.35L167.48-10.35Q167.48-12.8 168.33-14.83 169.18-16.85 170.68-18.3 172.18-19.75 174.23-20.55 176.28-21.35 178.68-21.35L178.68-21.35Q181.08-21.35 183.08-20.58 185.08-19.8 186.53-18.4 187.98-17 188.78-15.08 189.58-13.15 189.58-10.85L189.58-10.85Q189.58-8.7 188.86-6.68 188.13-4.65 186.71-3.1 185.28-1.55 183.21-0.6 181.13 0.35 178.38 0.35ZM178.08-19.7L178.08-19.7Q176.28-19.6 174.91-18.82 173.53-18.05 172.61-16.82 171.68-15.6 171.21-14.05 170.73-12.5 170.73-10.9L170.73-10.9Q170.73-9.05 171.31-7.33 171.88-5.6 172.96-4.25 174.03-2.9 175.53-2.1 177.03-1.3 178.88-1.3L178.88-1.3Q180.73-1.3 182.16-2.1 183.58-2.9 184.53-4.17 185.48-5.45 185.96-7.05 186.43-8.65 186.43-10.25L186.43-10.25Q186.43-11.9 185.93-13.58 185.43-15.25 184.38-16.63 183.33-18 181.76-18.85 180.18-19.7 178.08-19.7ZM214.13-12.9L214.13-3.25Q214.13-2.85 214.23-2.38 214.33-1.9 214.55-1.5 214.78-1.1 215.05-0.8 215.33-0.5 215.73-0.5L215.73-0.5 215.73 0 209.28 0 209.28-0.5Q209.63-0.5 209.93-0.8 210.23-1.1 210.45-1.5 210.68-1.9 210.78-2.38 210.88-2.85 210.88-3.25L210.88-3.25 210.88-12.55Q210.88-14.35 210.38-15.7 209.88-17.05 209.03-17.95 208.18-18.85 207.1-19.28 206.03-19.7 204.93-19.7L204.93-19.7Q203.83-19.7 202.75-19.25 201.68-18.8 200.85-18.07 200.03-17.35 199.5-16.38 198.98-15.4 198.98-14.35L198.98-14.35 198.98-3.25Q198.98-2.85 199.08-2.38 199.18-1.9 199.4-1.5 199.63-1.1 199.9-0.8 200.18-0.5 200.58-0.5L200.58-0.5 200.58 0 194.08 0 194.08-0.5Q194.43-0.5 194.73-0.8 195.03-1.1 195.25-1.5 195.48-1.9 195.58-2.38 195.68-2.85 195.68-3.25L195.68-3.25 195.68-17.05Q195.68-17.9 195.43-18.68 195.18-19.45 193.98-19.5L193.98-19.5 193.98-19.95 198.98-21.55 198.98-18.8Q199.33-19.2 199.88-19.68 200.43-20.15 201.2-20.58 201.98-21 203-21.28 204.03-21.55 205.43-21.55L205.43-21.55Q207.78-21.55 209.43-20.75 211.08-19.95 212.13-18.68 213.18-17.4 213.65-15.88 214.13-14.35 214.13-12.9L214.13-12.9ZM240.73-10.1L223.38-10.1Q223.58-8.35 224.23-6.78 224.88-5.2 225.95-4 227.03-2.8 228.58-2.08 230.13-1.35 232.18-1.35L232.18-1.35Q233.28-1.35 234.5-1.68 235.73-2 236.78-2.6 237.83-3.2 238.65-4.08 239.48-4.95 239.78-6.05L239.78-6.05 240.23-6.05 240.23-2.3Q239.93-2.3 239.55-2.1 239.18-1.9 238.68-1.6L238.68-1.6Q237.68-1 235.98-0.33 234.28 0.35 231.48 0.35L231.48 0.35Q229.23 0.35 227.2-0.3 225.18-0.95 223.63-2.3 222.08-3.65 221.15-5.75 220.23-7.85 220.23-10.75L220.23-10.75Q220.23-12.6 220.85-14.5 221.48-16.4 222.75-17.93 224.03-19.45 226.03-20.4 228.03-21.35 230.83-21.35L230.83-21.35Q233.33-21.35 235.2-20.5 237.08-19.65 238.3-18.15 239.53-16.65 240.13-14.6 240.73-12.55 240.73-10.1L240.73-10.1ZM230.63-19.7L230.63-19.7Q228.88-19.7 227.6-19 226.33-18.3 225.43-17.2 224.53-16.1 224.03-14.7 223.53-13.3 223.38-11.9L223.38-11.9 237.63-11.9Q237.58-13.35 237.1-14.75 236.63-16.15 235.78-17.25 234.93-18.35 233.63-19.03 232.33-19.7 230.63-19.7ZM258.57-20.4L257.07-17.35Q256.47-18.35 255.82-18.6 255.17-18.85 254.32-18.85L254.32-18.85Q253.77-18.85 253.15-18.6 252.52-18.35 251.92-17.95 251.32-17.55 250.75-17.07 250.17-16.6 249.77-16.2L249.77-16.2 249.77-3.2Q249.77-2.8 249.87-2.35 249.97-1.9 250.2-1.48 250.42-1.05 250.7-0.78 250.97-0.5 251.37-0.5L251.37-0.5 251.37 0 244.87 0 244.87-0.5Q245.22-0.5 245.52-0.78 245.82-1.05 246.05-1.48 246.27-1.9 246.37-2.35 246.47-2.8 246.47-3.2L246.47-3.2 246.47-17.15Q246.47-17.85 246.02-18.55 245.57-19.25 244.72-19.45L244.72-19.45 244.72-19.85 249.77-21.35 249.77-18.35Q250.22-18.9 250.72-19.43 251.22-19.95 251.85-20.38 252.47-20.8 253.22-21.08 253.97-21.35 254.97-21.35L254.97-21.35Q255.67-21.35 256.77-21.05 257.87-20.75 258.57-20.4L258.57-20.4ZM277.97-5.7L277.97-5.7Q277.97-4.4 277.32-3.3 276.67-2.2 275.55-1.38 274.42-0.55 272.92-0.08 271.42 0.4 269.67 0.4L269.67 0.4Q267.52 0.4 266.17-0.18 264.82-0.75 263.87-1.35L263.87-1.35Q263.22-1.75 262.67-2.02 262.12-2.3 261.47-2.3L261.47-2.3 261.47-6.1 261.97-6.1Q262.12-5.4 262.85-4.58 263.57-3.75 264.6-3.05 265.62-2.35 266.85-1.88 268.07-1.4 269.32-1.4L269.32-1.4Q270.22-1.4 271.17-1.6 272.12-1.8 272.9-2.25 273.67-2.7 274.2-3.38 274.72-4.05 274.72-5L274.72-5Q274.72-5.95 274.17-6.65 273.62-7.35 272.77-7.88 271.92-8.4 270.82-8.8 269.72-9.2 268.62-9.55L268.62-9.55Q267.32-9.95 266-10.45 264.67-10.95 263.62-11.63 262.57-12.3 261.92-13.28 261.27-14.25 261.27-15.6L261.27-15.6Q261.27-16.75 261.7-17.8 262.12-18.85 263.1-19.63 264.07-20.4 265.62-20.88 267.17-21.35 269.37-21.35L269.37-21.35Q271.32-21.35 272.4-21.03 273.47-20.7 274.17-20.35L274.17-20.35Q274.62-20.1 275.07-19.98 275.52-19.85 276.07-19.85L276.07-19.85 276.07-16.35 275.67-16.35Q274.77-18 272.92-18.85 271.07-19.7 269.12-19.7L269.12-19.7Q267.87-19.7 266.97-19.38 266.07-19.05 265.5-18.57 264.92-18.1 264.65-17.5 264.37-16.9 264.37-16.3L264.37-16.3Q264.37-15.45 264.85-14.85 265.32-14.25 266.15-13.8 266.97-13.35 268-12.95 269.02-12.55 270.17-12.2L270.17-12.2Q271.57-11.75 272.97-11.23 274.37-10.7 275.47-9.95 276.57-9.2 277.27-8.18 277.97-7.15 277.97-5.7Z" opacity="1" transform="matrix(1,0,0,1,0,0)" fill="black" class="wordmark-text-0" id="SvgjsPath4654"></path></svg></g></svg></g><g transform="matrix(1,0,0,1,170.0736,60.0938083443302)"><svg viewBox="0 0 225.44639999999998 19.78799493670886" height="19.78799493670886" width="225.44639999999998"><g transform="matrix(1,0,0,1,0,0)"><svg width="225.44639999999998" viewBox="1.98 -38.09 555.41 48.760000000000005" height="19.78799493670886" data-palette-color="url(#5e12024c-b8cf-4d84-87cd-70a36247f1f0)"></svg></g></svg></g></svg></g></svg></g><g><svg viewBox="0 0 112.76136533715692 110.39665213439598" height="110.39665213439598" width="112.76136533715692"><g><svg xmlns="http://www.w3.org/2000/svg" xmlns:xlink="http://www.w3.org/1999/xlink" version="1.1" x="0" y="0" viewBox="12.833 13.54 69.334 67.88" enable-background="new 0 0 95 95" xml:space="preserve" height="110.39665213439598" width="112.76136533715692" class="icon-icon-0" data-fill-palette-color="accent" id="SvgjsSvg4653"><g fill="white"><path d="M35.784 69.836C35.83 69.836 35.879 69.826 35.927 69.809 36.143 69.828 36.362 69.836 36.583 69.836 40.948 69.836 44.5 66.284 44.5 61.919 44.5 61.016 44.341 60.115 44.027 59.244A8 8 0 0 0 43.365 57.849C43.172 57.099 43.3 56.419 43.747 55.829 44.375 54.999 45.595 54.455 47.001 54.349V80.92A0.5 0.5 0 0 0 48.001 80.92V54.352C49.406 54.457 50.626 55.002 51.253 55.831 51.7 56.421 51.828 57.1 51.635 57.85 51.37 58.29 51.149 58.759 50.973 59.246A7.9 7.9 0 0 0 50.5 61.92C50.5 66.285 54.052 69.837 58.417 69.837 58.633 69.837 58.846 69.828 59.057 69.811A0.5 0.5 0 0 0 59.216 69.837C70.498 69.837 82.167 60.608 82.167 45.163 82.167 30.235 67.342 13.54 47.5 13.54S12.833 30.234 12.833 45.162C12.833 60.605 24.502 69.836 35.784 69.836M48.001 14.552C67.018 14.831 81.167 30.833 81.167 45.162 81.167 59.905 70.118 68.746 59.379 68.835A0.5 0.5 0 0 0 59.133 68.799 7 7 0 0 1 58.417 68.836C54.604 68.836 51.5 65.732 51.5 61.919 51.5 61.132 51.641 60.346 51.914 59.582 52.073 59.139 52.279 58.71 52.523 58.311A0.6 0.6 0 0 0 52.58 58.184C52.883 57.108 52.699 56.084 52.051 55.229 51.229 54.143 49.738 53.463 48.001 53.352zM47.001 14.552V53.352C45.265 53.463 43.772 54.143 42.949 55.229 42.301 56.084 42.117 57.108 42.42 58.184A0.5 0.5 0 0 0 42.476 58.311C42.721 58.71 42.927 59.139 43.086 59.582 43.36 60.346 43.5 61.132 43.5 61.919A6.926 6.926 0 0 1 35.867 68.799 0.43 0.43 0 0 0 35.648 68.836C24.901 68.762 13.833 59.918 13.833 45.162 13.833 30.833 27.984 14.83 47.001 14.552" fill="white"></path></g></svg></g></svg></g></svg></g><defs><mask></mask></defs><mask><g id="SvgjsG4652"><svg viewBox="0 0 395.52 84.00839501904753" height="84.00839501904753" width="395.52"><g><svg viewBox="0 0 519.7585770124067 110.39665213439598" height="84.00839501904753" width="395.52"><g transform="matrix(1,0,0,1,124.23857701240674,15.257424426678462)"><svg viewBox="0 0 395.52 79.88180328103905" height="79.88180328103905" width="395.52"><g id="SvgjsG4651"><svg viewBox="0 0 395.52 79.88180328103905" height="79.88180328103905" width="395.52" id="SvgjsSvg4650"><g><svg viewBox="0 0 395.52 48.61659666908038" height="48.61659666908038" width="395.52"><g transform="matrix(1,0,0,1,0,0)"><svg width="395.52" viewBox="1.8 -33.5 276.17 33.95" height="48.61659666908038" data-palette-color="#9c7945"><path d="M22.5-8.85L22.5-8.85Q22.5-6.35 21.5-4.58 20.5-2.8 18.93-1.7 17.35-0.6 15.38-0.1 13.4 0.4 11.45 0.4L11.45 0.4Q9.45 0.4 8 0 6.55-0.4 5.35-0.75L5.35-0.75Q4.55-1 3.9-1.18 3.25-1.35 2.6-1.35L2.6-1.35 2.6-7.05 3.1-7.05Q3.1-5.15 4.08-4.03 5.05-2.9 6.35-2.3 7.65-1.7 8.95-1.53 10.25-1.35 10.85-1.35L10.85-1.35Q13-1.35 14.55-1.98 16.1-2.6 17.1-3.63 18.1-4.65 18.57-5.9 19.05-7.15 19.05-8.45L19.05-8.45Q19.05-10.1 18.35-11.23 17.65-12.35 16.53-13.2 15.4-14.05 13.95-14.65 12.5-15.25 11-15.85L11-15.85Q9.3-16.5 7.65-17.2 6-17.9 4.7-18.93 3.4-19.95 2.6-21.38 1.8-22.8 1.8-24.9L1.8-24.9Q1.8-27.1 2.65-28.73 3.5-30.35 4.93-31.4 6.35-32.45 8.18-32.98 10-33.5 11.9-33.5L11.9-33.5Q13.2-33.5 14.35-33.33 15.5-33.15 16.55-32.9L16.55-32.9Q17.4-32.7 18.2-32.58 19-32.45 19.75-32.45L19.75-32.45 19.75-27.3 19.25-27.3Q19.15-29.9 17.2-30.83 15.25-31.75 11.8-31.75L11.8-31.75Q9.8-31.75 8.53-31.08 7.25-30.4 6.5-29.43 5.75-28.45 5.48-27.33 5.2-26.2 5.2-25.35L5.2-25.35Q5.2-23.95 5.83-22.95 6.45-21.95 7.5-21.2 8.55-20.45 9.93-19.85 11.3-19.25 12.8-18.7L12.8-18.7Q14.5-18.05 16.25-17.3 18-16.55 19.38-15.45 20.75-14.35 21.63-12.75 22.5-11.15 22.5-8.85ZM46.85-10.1L29.5-10.1Q29.7-8.35 30.35-6.78 31-5.2 32.07-4 33.15-2.8 34.7-2.08 36.25-1.35 38.3-1.35L38.3-1.35Q39.4-1.35 40.62-1.68 41.85-2 42.9-2.6 43.95-3.2 44.77-4.08 45.6-4.95 45.9-6.05L45.9-6.05 46.35-6.05 46.35-2.3Q46.05-2.3 45.67-2.1 45.3-1.9 44.8-1.6L44.8-1.6Q43.8-1 42.1-0.33 40.4 0.35 37.6 0.35L37.6 0.35Q35.35 0.35 33.32-0.3 31.3-0.95 29.75-2.3 28.2-3.65 27.27-5.75 26.35-7.85 26.35-10.75L26.35-10.75Q26.35-12.6 26.97-14.5 27.6-16.4 28.87-17.93 30.15-19.45 32.15-20.4 34.15-21.35 36.95-21.35L36.95-21.35Q39.45-21.35 41.32-20.5 43.2-19.65 44.42-18.15 45.65-16.65 46.25-14.6 46.85-12.55 46.85-10.1L46.85-10.1ZM36.75-19.7L36.75-19.7Q35-19.7 33.72-19 32.45-18.3 31.55-17.2 30.65-16.1 30.15-14.7 29.65-13.3 29.5-11.9L29.5-11.9 43.75-11.9Q43.7-13.35 43.22-14.75 42.75-16.15 41.9-17.25 41.05-18.35 39.75-19.03 38.45-19.7 36.75-19.7ZM61.5 0.35L61.5 0.35Q59 0.35 57-0.48 55-1.3 53.57-2.73 52.15-4.15 51.37-6.1 50.6-8.05 50.6-10.35L50.6-10.35Q50.6-12.8 51.45-14.83 52.3-16.85 53.8-18.3 55.3-19.75 57.35-20.55 59.4-21.35 61.8-21.35L61.8-21.35Q64.2-21.35 66.2-20.58 68.2-19.8 69.65-18.4 71.09-17 71.9-15.08 72.7-13.15 72.7-10.85L72.7-10.85Q72.7-8.7 71.97-6.68 71.25-4.65 69.82-3.1 68.4-1.55 66.32-0.6 64.25 0.35 61.5 0.35ZM61.2-19.7L61.2-19.7Q59.4-19.6 58.02-18.82 56.65-18.05 55.72-16.82 54.8-15.6 54.32-14.05 53.85-12.5 53.85-10.9L53.85-10.9Q53.85-9.05 54.42-7.33 55-5.6 56.07-4.25 57.15-2.9 58.65-2.1 60.15-1.3 62-1.3L62-1.3Q63.85-1.3 65.27-2.1 66.7-2.9 67.65-4.17 68.59-5.45 69.07-7.05 69.55-8.65 69.55-10.25L69.55-10.25Q69.55-11.9 69.05-13.58 68.55-15.25 67.5-16.63 66.45-18 64.87-18.85 63.3-19.7 61.2-19.7ZM96.94-21.55L96.94-3.25Q96.94-2.9 97.04-2.43 97.14-1.95 97.32-1.53 97.49-1.1 97.79-0.8 98.09-0.5 98.49-0.5L98.49-0.5 98.49 0 93.64 0 93.64-2.75Q92.89-1.65 91.44-0.6 89.99 0.45 87.69 0.45L87.69 0.45Q84.79 0.45 83.09-0.55 81.39-1.55 80.49-3.1 79.59-4.65 79.34-6.48 79.09-8.3 79.09-9.9L79.09-9.9 79.09-17.05Q79.09-17.5 79.07-17.93 79.04-18.35 78.87-18.7 78.69-19.05 78.34-19.28 77.99-19.5 77.34-19.5L77.34-19.5 77.34-19.95 82.39-21.55 82.39-8.8Q82.39-5 84.04-3.2 85.69-1.4 88.09-1.4L88.09-1.4Q89.39-1.4 90.42-1.98 91.44-2.55 92.17-3.35 92.89-4.15 93.27-5 93.64-5.85 93.64-6.4L93.64-6.4 93.64-17.05Q93.64-17.5 93.62-17.93 93.59-18.35 93.42-18.7 93.24-19.05 92.89-19.28 92.54-19.5 91.89-19.5L91.89-19.5 91.89-19.95 96.94-21.55ZM110.09 0L103.54 0 103.54-0.5Q103.94-0.5 104.24-0.8 104.54-1.1 104.77-1.5 104.99-1.9 105.09-2.38 105.19-2.85 105.19-3.25L105.19-3.25 105.19-28.85Q105.19-29.7 104.94-30.45 104.69-31.2 103.44-31.25L103.44-31.25 103.44-31.75 108.49-33.3 108.49-3.25Q108.49-2.85 108.59-2.38 108.69-1.9 108.92-1.5 109.14-1.1 109.42-0.8 109.69-0.5 110.09-0.5L110.09-0.5 110.09 0ZM134.69-21.55L134.69-3.25Q134.69-2.9 134.79-2.43 134.89-1.95 135.06-1.53 135.24-1.1 135.54-0.8 135.84-0.5 136.24-0.5L136.24-0.5 136.24 0 131.39 0 131.39-2.75Q130.64-1.65 129.19-0.6 127.74 0.45 125.44 0.45L125.44 0.45Q122.54 0.45 120.84-0.55 119.14-1.55 118.24-3.1 117.34-4.65 117.09-6.48 116.84-8.3 116.84-9.9L116.84-9.9 116.84-17.05Q116.84-17.5 116.81-17.93 116.79-18.35 116.61-18.7 116.44-19.05 116.09-19.28 115.74-19.5 115.09-19.5L115.09-19.5 115.09-19.95 120.14-21.55 120.14-8.8Q120.14-5 121.79-3.2 123.44-1.4 125.84-1.4L125.84-1.4Q127.14-1.4 128.16-1.98 129.19-2.55 129.91-3.35 130.64-4.15 131.01-5 131.39-5.85 131.39-6.4L131.39-6.4 131.39-17.05Q131.39-17.5 131.36-17.93 131.34-18.35 131.16-18.7 130.99-19.05 130.64-19.28 130.29-19.5 129.64-19.5L129.64-19.5 129.64-19.95 134.69-21.55ZM151.59-19.3L145.99-19.3 145.99-7.25Q145.99-5.95 146.04-4.9 146.09-3.85 146.29-3.15 146.49-2.45 146.89-2.08 147.29-1.7 147.99-1.7L147.99-1.7Q149.04-1.7 149.96-2.7 150.89-3.7 151.14-5.1L151.14-5.1 151.59-5.1 151.59-1.45Q151.14-1.45 150.84-1.15L150.84-1.15Q150.44-0.8 149.71-0.4 148.99 0 147.54 0L147.54 0Q145.74 0 144.74-0.7 143.74-1.4 143.29-2.55 142.84-3.7 142.76-5.1 142.69-6.5 142.69-7.95L142.69-7.95 142.69-19.3 139.89-19.3 139.89-21 142.69-21 142.69-25.45Q142.69-26.3 142.46-27.03 142.24-27.75 140.99-27.8L140.99-27.8 140.99-28.3 145.99-29.9 145.99-21 151.59-21 151.59-19.3ZM162.53 0L156.03 0 156.03-0.5Q156.43-0.5 156.73-0.8 157.03-1.1 157.23-1.5 157.43-1.9 157.53-2.38 157.63-2.85 157.63-3.25L157.63-3.25 157.63-17.1Q157.63-17.95 157.38-18.73 157.13-19.5 155.93-19.55L155.93-19.55 155.93-20 160.93-21.6 160.93-3.25Q160.93-2.85 161.03-2.38 161.13-1.9 161.33-1.5 161.53-1.1 161.83-0.8 162.13-0.5 162.53-0.5L162.53-0.5 162.53 0ZM156.28-26.4L156.28-26.4Q156.28-27.4 156.96-28.1 157.63-28.8 158.63-28.8L158.63-28.8Q159.63-28.8 160.33-28.1 161.03-27.4 161.03-26.4L161.03-26.4Q161.03-25.4 160.33-24.75 159.63-24.1 158.63-24.1L158.63-24.1Q157.63-24.1 156.96-24.75 156.28-25.4 156.28-26.4ZM178.38 0.35L178.38 0.35Q175.88 0.35 173.88-0.48 171.88-1.3 170.46-2.73 169.03-4.15 168.26-6.1 167.48-8.05 167.48-10.35L167.48-10.35Q167.48-12.8 168.33-14.83 169.18-16.85 170.68-18.3 172.18-19.75 174.23-20.55 176.28-21.35 178.68-21.35L178.68-21.35Q181.08-21.35 183.08-20.58 185.08-19.8 186.53-18.4 187.98-17 188.78-15.08 189.58-13.15 189.58-10.85L189.58-10.85Q189.58-8.7 188.86-6.68 188.13-4.65 186.71-3.1 185.28-1.55 183.21-0.6 181.13 0.35 178.38 0.35ZM178.08-19.7L178.08-19.7Q176.28-19.6 174.91-18.82 173.53-18.05 172.61-16.82 171.68-15.6 171.21-14.05 170.73-12.5 170.73-10.9L170.73-10.9Q170.73-9.05 171.31-7.33 171.88-5.6 172.96-4.25 174.03-2.9 175.53-2.1 177.03-1.3 178.88-1.3L178.88-1.3Q180.73-1.3 182.16-2.1 183.58-2.9 184.53-4.17 185.48-5.45 185.96-7.05 186.43-8.65 186.43-10.25L186.43-10.25Q186.43-11.9 185.93-13.58 185.43-15.25 184.38-16.63 183.33-18 181.76-18.85 180.18-19.7 178.08-19.7ZM214.13-12.9L214.13-3.25Q214.13-2.85 214.23-2.38 214.33-1.9 214.55-1.5 214.78-1.1 215.05-0.8 215.33-0.5 215.73-0.5L215.73-0.5 215.73 0 209.28 0 209.28-0.5Q209.63-0.5 209.93-0.8 210.23-1.1 210.45-1.5 210.68-1.9 210.78-2.38 210.88-2.85 210.88-3.25L210.88-3.25 210.88-12.55Q210.88-14.35 210.38-15.7 209.88-17.05 209.03-17.95 208.18-18.85 207.1-19.28 206.03-19.7 204.93-19.7L204.93-19.7Q203.83-19.7 202.75-19.25 201.68-18.8 200.85-18.07 200.03-17.35 199.5-16.38 198.98-15.4 198.98-14.35L198.98-14.35 198.98-3.25Q198.98-2.85 199.08-2.38 199.18-1.9 199.4-1.5 199.63-1.1 199.9-0.8 200.18-0.5 200.58-0.5L200.58-0.5 200.58 0 194.08 0 194.08-0.5Q194.43-0.5 194.73-0.8 195.03-1.1 195.25-1.5 195.48-1.9 195.58-2.38 195.68-2.85 195.68-3.25L195.68-3.25 195.68-17.05Q195.68-17.9 195.43-18.68 195.18-19.45 193.98-19.5L193.98-19.5 193.98-19.95 198.98-21.55 198.98-18.8Q199.33-19.2 199.88-19.68 200.43-20.15 201.2-20.58 201.98-21 203-21.28 204.03-21.55 205.43-21.55L205.43-21.55Q207.78-21.55 209.43-20.75 211.08-19.95 212.13-18.68 213.18-17.4 213.65-15.88 214.13-14.35 214.13-12.9L214.13-12.9ZM240.73-10.1L223.38-10.1Q223.58-8.35 224.23-6.78 224.88-5.2 225.95-4 227.03-2.8 228.58-2.08 230.13-1.35 232.18-1.35L232.18-1.35Q233.28-1.35 234.5-1.68 235.73-2 236.78-2.6 237.83-3.2 238.65-4.08 239.48-4.95 239.78-6.05L239.78-6.05 240.23-6.05 240.23-2.3Q239.93-2.3 239.55-2.1 239.18-1.9 238.68-1.6L238.68-1.6Q237.68-1 235.98-0.33 234.28 0.35 231.48 0.35L231.48 0.35Q229.23 0.35 227.2-0.3 225.18-0.95 223.63-2.3 222.08-3.65 221.15-5.75 220.23-7.85 220.23-10.75L220.23-10.75Q220.23-12.6 220.85-14.5 221.48-16.4 222.75-17.93 224.03-19.45 226.03-20.4 228.03-21.35 230.83-21.35L230.83-21.35Q233.33-21.35 235.2-20.5 237.08-19.65 238.3-18.15 239.53-16.65 240.13-14.6 240.73-12.55 240.73-10.1L240.73-10.1ZM230.63-19.7L230.63-19.7Q228.88-19.7 227.6-19 226.33-18.3 225.43-17.2 224.53-16.1 224.03-14.7 223.53-13.3 223.38-11.9L223.38-11.9 237.63-11.9Q237.58-13.35 237.1-14.75 236.63-16.15 235.78-17.25 234.93-18.35 233.63-19.03 232.33-19.7 230.63-19.7ZM258.57-20.4L257.07-17.35Q256.47-18.35 255.82-18.6 255.17-18.85 254.32-18.85L254.32-18.85Q253.77-18.85 253.15-18.6 252.52-18.35 251.92-17.95 251.32-17.55 250.75-17.07 250.17-16.6 249.77-16.2L249.77-16.2 249.77-3.2Q249.77-2.8 249.87-2.35 249.97-1.9 250.2-1.48 250.42-1.05 250.7-0.78 250.97-0.5 251.37-0.5L251.37-0.5 251.37 0 244.87 0 244.87-0.5Q245.22-0.5 245.52-0.78 245.82-1.05 246.05-1.48 246.27-1.9 246.37-2.35 246.47-2.8 246.47-3.2L246.47-3.2 246.47-17.15Q246.47-17.85 246.02-18.55 245.57-19.25 244.72-19.45L244.72-19.45 244.72-19.85 249.77-21.35 249.77-18.35Q250.22-18.9 250.72-19.43 251.22-19.95 251.85-20.38 252.47-20.8 253.22-21.08 253.97-21.35 254.97-21.35L254.97-21.35Q255.67-21.35 256.77-21.05 257.87-20.75 258.57-20.4L258.57-20.4ZM277.97-5.7L277.97-5.7Q277.97-4.4 277.32-3.3 276.67-2.2 275.55-1.38 274.42-0.55 272.92-0.08 271.42 0.4 269.67 0.4L269.67 0.4Q267.52 0.4 266.17-0.18 264.82-0.75 263.87-1.35L263.87-1.35Q263.22-1.75 262.67-2.02 262.12-2.3 261.47-2.3L261.47-2.3 261.47-6.1 261.97-6.1Q262.12-5.4 262.85-4.58 263.57-3.75 264.6-3.05 265.62-2.35 266.85-1.88 268.07-1.4 269.32-1.4L269.32-1.4Q270.22-1.4 271.17-1.6 272.12-1.8 272.9-2.25 273.67-2.7 274.2-3.38 274.72-4.05 274.72-5L274.72-5Q274.72-5.95 274.17-6.65 273.62-7.35 272.77-7.88 271.92-8.4 270.82-8.8 269.72-9.2 268.62-9.55L268.62-9.55Q267.32-9.95 266-10.45 264.67-10.95 263.62-11.63 262.57-12.3 261.92-13.28 261.27-14.25 261.27-15.6L261.27-15.6Q261.27-16.75 261.7-17.8 262.12-18.85 263.1-19.63 264.07-20.4 265.62-20.88 267.17-21.35 269.37-21.35L269.37-21.35Q271.32-21.35 272.4-21.03 273.47-20.7 274.17-20.35L274.17-20.35Q274.62-20.1 275.07-19.98 275.52-19.85 276.07-19.85L276.07-19.85 276.07-16.35 275.67-16.35Q274.77-18 272.92-18.85 271.07-19.7 269.12-19.7L269.12-19.7Q267.87-19.7 266.97-19.38 266.07-19.05 265.5-18.57 264.92-18.1 264.65-17.5 264.37-16.9 264.37-16.3L264.37-16.3Q264.37-15.45 264.85-14.85 265.32-14.25 266.15-13.8 266.97-13.35 268-12.95 269.02-12.55 270.17-12.2L270.17-12.2Q271.57-11.75 272.97-11.23 274.37-10.7 275.47-9.95 276.57-9.2 277.27-8.18 277.97-7.15 277.97-5.7Z" opacity="1" transform="matrix(1,0,0,1,0,0)" fill="black" class="wordmark-text-0" id="SvgjsPath4649"></path></svg></g></svg></g><g transform="matrix(1,0,0,1,170.0736,60.0938083443302)"><svg viewBox="0 0 225.44639999999998 19.78799493670886" height="19.78799493670886" width="225.44639999999998"><g transform="matrix(1,0,0,1,0,0)"><svg width="225.44639999999998" viewBox="1.98 -38.09 555.41 48.760000000000005" height="19.78799493670886" data-palette-color="url(#5e12024c-b8cf-4d84-87cd-70a36247f1f0)"><path d="M36.55 0L23.78 0 23.78-3.08 27.76-3.76 27.76-15.7 10.77-15.7 10.77-3.76 14.75-3.08 14.75 0 1.98 0 1.98-3.08 5.96-3.76 5.96-31.76 1.98-32.45 1.98-35.55 14.75-35.55 14.75-32.45 10.77-31.76 10.77-19.48 27.76-19.48 27.76-31.76 23.78-32.45 23.78-35.55 36.55-35.55 36.55-32.45 32.57-31.76 32.57-3.76 36.55-3.08 36.55 0ZM52.37 0.51L52.37 0.51Q48.7 0.51 45.99-1.17L45.99-1.17Q43.28-2.83 41.81-5.81 40.33-8.79 40.33-12.7L40.33-12.7 40.33-13.77Q40.33-17.55 41.89-20.51L41.89-20.51Q43.43-23.49 46.01-25.2 48.58-26.9 51.63-26.9L51.63-26.9Q55.2-26.9 57.61-25.44L57.61-25.44Q60.01-23.97 61.23-21.33 62.45-18.68 62.45-15.09L62.45-15.09 62.45-12.08 45.31-12.08 45.24-11.96Q45.26-9.47 46.14-7.47L46.14-7.47Q46.99-5.49 48.57-4.37 50.14-3.25 52.37-3.25L52.37-3.25Q54.81-3.25 56.65-3.94 58.49-4.64 59.84-5.86L59.84-5.86 61.72-2.73Q60.3-1.37 57.97-0.43 55.64 0.51 52.37 0.51ZM45.41-15.97L45.41-15.97 45.46-15.84 57.64-15.84 57.64-16.48Q57.64-18.41 56.98-19.9L56.98-19.9Q56.3-21.41 54.97-22.27 53.64-23.12 51.63-23.12L51.63-23.12Q50.05-23.12 48.7-22.19L48.7-22.19Q45.97-20.21 45.41-15.97ZM74.92-18.73L74.92-18.73 74.92-3.76 78.9-3.08 78.9 0 66.13 0 66.13-3.08 70.11-3.76 70.11-22.63 66.13-23.32 66.13-26.42 74.41-26.42 74.82-23.05 74.87-22.58Q76-24.61 77.64-25.76 79.29-26.9 81.42-26.9L81.42-26.9Q82.17-26.9 82.97-26.77 83.76-26.64 84.1-26.51L84.1-26.51 83.47-22.05 80.12-22.24Q78.22-22.36 76.92-21.37 75.63-20.39 74.92-18.73ZM95.65-32.93L90.59-32.93 90.59-38.09 95.65-38.09 95.65-32.93ZM86.86-3.08L90.84-3.76 90.84-22.63 86.86-23.32 86.86-26.42 95.65-26.42 95.65-3.76 99.63-3.08 99.63 0 86.86 0 86.86-3.08ZM112.27 0.42L112.27 0.42Q109.34 0.42 107.62-1.31 105.9-3.03 105.9-6.81L105.9-6.81 105.9-22.85 101.72-22.85 101.72-26.42 105.9-26.42 105.9-32.79 110.71-32.79 110.71-26.42 116.45-26.42 116.45-22.85 110.71-22.85 110.71-6.81Q110.71-4.91 111.46-4 112.22-3.1 113.49-3.1L113.49-3.1Q114.35-3.1 115.4-3.26 116.45-3.42 117.03-3.54L117.03-3.54 117.69-0.39Q116.64-0.07 115.11 0.17 113.59 0.42 112.27 0.42ZM129.31 0.51L129.31 0.51Q125.18 0.51 123.03-1.5 120.89-3.52 120.89-7.18L120.89-7.18Q120.89-9.72 122.28-11.57L122.28-11.57Q123.64-13.45 126.26-14.48 128.87-15.5 132.51-15.5L132.51-15.5 137.22-15.5 137.22-18.09Q137.22-20.48 135.77-21.8 134.31-23.12 131.68-23.12L131.68-23.12Q130.02-23.12 128.8-22.72 127.58-22.31 126.57-21.61L126.57-21.61 126.06-17.92 122.35-17.92 122.35-23.97Q125.94-26.9 131.75-26.9L131.75-26.9Q136.56-26.9 139.29-24.61 142.03-22.31 142.03-18.04L142.03-18.04 142.03-5.32Q142.03-4.81 142.04-4.32 142.05-3.83 142.1-3.34L142.1-3.34 144.67-3.08 144.67 0 137.76 0Q137.34-2 137.24-3.64L137.24-3.64Q135.85-1.86 133.76-0.67 131.68 0.51 129.31 0.51ZM130.02-3.52L130.02-3.52Q132.41-3.52 134.39-4.66 136.36-5.81 137.22-7.42L137.22-7.42 137.22-12.21 132.34-12.21Q129.02-12.21 127.36-10.62 125.7-9.03 125.7-7.08L125.7-7.08Q125.7-3.52 130.02-3.52ZM166.93-26.42L174.25-26.42 174.25-23.34 170.98-22.63 170.98-0.34Q170.98 3.1 169.71 5.54L169.71 5.54Q168.44 8.01 165.98 9.34 163.51 10.67 159.99 10.67L159.99 10.67Q158.09 10.67 155.87 10.14 153.65 9.62 151.96 8.72L151.96 8.72 153.21 4.98Q154.55 5.69 156.38 6.15 158.21 6.62 159.95 6.62L159.95 6.62Q163.17 6.62 164.67 4.81 166.17 3 166.17-0.34L166.17-0.34 166.17-2.86Q163.53 0.51 158.92 0.51L158.92 0.51Q155.7 0.51 153.35-1.1L153.35-1.1Q151.01-2.69 149.75-5.55 148.5-8.42 148.5-12.21L148.5-12.21 148.5-12.72Q148.5-17.02 149.77-20.17L149.77-20.17Q151.01-23.36 153.35-25.13 155.7-26.9 158.97-26.9L158.97-26.9Q163.88-26.9 166.49-23.1L166.49-23.1 166.93-26.42ZM166.17-7.18L166.17-7.18 166.17-19.34Q165.24-21.02 163.75-22.01 162.27-23 160.17-23L160.17-23Q157.87-23 156.36-21.68L156.36-21.68Q154.82-20.36 154.06-18.05 153.31-15.75 153.31-12.72L153.31-12.72 153.31-12.21Q153.31-8.23 154.99-5.81 156.67-3.39 160.12-3.39L160.12-3.39Q162.29-3.39 163.75-4.38 165.22-5.37 166.17-7.18ZM188.68 0.51L188.68 0.51Q185.02 0.51 182.31-1.17L182.31-1.17Q179.6-2.83 178.12-5.81 176.64-8.79 176.64-12.7L176.64-12.7 176.64-13.77Q176.64-17.55 178.21-20.51L178.21-20.51Q179.74-23.49 182.32-25.2 184.89-26.9 187.95-26.9L187.95-26.9Q191.51-26.9 193.93-25.44L193.93-25.44Q196.32-23.97 197.54-21.33 198.76-18.68 198.76-15.09L198.76-15.09 198.76-12.08 181.62-12.08 181.55-11.96Q181.57-9.47 182.45-7.47L182.45-7.47Q183.31-5.49 184.88-4.37 186.46-3.25 188.68-3.25L188.68-3.25Q191.12-3.25 192.96-3.94 194.81-4.64 196.15-5.86L196.15-5.86 198.03-2.73Q196.61-1.37 194.28-0.43 191.95 0.51 188.68 0.51ZM181.72-15.97L181.72-15.97 181.77-15.84 193.95-15.84 193.95-16.48Q193.95-18.41 193.29-19.9L193.29-19.9Q192.61-21.41 191.28-22.27 189.95-23.12 187.95-23.12L187.95-23.12Q186.36-23.12 185.02-22.19L185.02-22.19Q182.28-20.21 181.72-15.97ZM228.2-32.93L223.15-32.93 223.15-38.09 228.2-38.09 228.2-32.93ZM219.41-3.08L223.39-3.76 223.39-22.63 219.41-23.32 219.41-26.42 228.2-26.42 228.2-3.76 232.18-3.08 232.18 0 219.41 0 219.41-3.08ZM244.29-19.26L244.29-19.26 244.29-3.76 248.27-3.08 248.27 0 235.5 0 235.5-3.08 239.48-3.76 239.48-22.63 235.5-23.32 235.5-26.42 243.77-26.42 244.12-22.49Q245.43-24.58 247.42-25.74 249.41-26.9 251.95-26.9L251.95-26.9Q256.23-26.9 258.57-24.4 260.91-21.9 260.91-16.67L260.91-16.67 260.91-3.76 264.89-3.08 264.89 0 252.12 0 252.12-3.08 256.1-3.76 256.1-16.58Q256.1-20.07 254.72-21.53 253.34-23 250.51-23L250.51-23Q248.44-23 246.84-22 245.24-21 244.29-19.26ZM294.33-20.26L307.44-20.26 307.44-16.48 294.33-16.48 294.33-3.61 308.25-3.61 308.78-8.52 312.62-8.52 312.62 0 285.54 0 285.54-3.08 289.52-3.76 289.52-31.76 285.54-32.45 285.54-35.55 311.86-35.55 311.86-27 308-27 307.47-31.84 294.33-31.84 294.33-20.26ZM330.41-5.66L331.19-7.79 336.64-22.83 333.1-23.32 333.1-26.42 344.16-26.42 344.16-23.32 341.37-22.95 332.44 0 328.21 0 318.82-22.95 316.08-23.32 316.08-26.42 327.16-26.42 327.16-23.32 323.72-22.83 329.58-7.79 330.27-5.66 330.41-5.66ZM358.73 0.51L358.73 0.51Q355.07 0.51 352.36-1.17L352.36-1.17Q349.65-2.83 348.17-5.81 346.69-8.79 346.69-12.7L346.69-12.7 346.69-13.77Q346.69-17.55 348.26-20.51L348.26-20.51Q349.79-23.49 352.37-25.2 354.95-26.9 358-26.9L358-26.9Q361.56-26.9 363.98-25.44L363.98-25.44Q366.37-23.97 367.59-21.33 368.81-18.68 368.81-15.09L368.81-15.09 368.81-12.08 351.67-12.08 351.6-11.96Q351.63-9.47 352.5-7.47L352.5-7.47Q353.36-5.49 354.93-4.37 356.51-3.25 358.73-3.25L358.73-3.25Q361.17-3.25 363.01-3.94 364.86-4.64 366.2-5.86L366.2-5.86 368.08-2.73Q366.66-1.37 364.33-0.43 362 0.51 358.73 0.51ZM351.77-15.97L351.77-15.97 351.82-15.84 364-15.84 364-16.48Q364-18.41 363.34-19.9L363.34-19.9Q362.66-21.41 361.33-22.27 360-23.12 358-23.12L358-23.12Q356.41-23.12 355.07-22.19L355.07-22.19Q352.33-20.21 351.77-15.97ZM381.29-18.73L381.29-18.73 381.29-3.76 385.27-3.08 385.27 0 372.5 0 372.5-3.08 376.48-3.76 376.48-22.63 372.5-23.32 372.5-26.42 380.77-26.42 381.19-23.05 381.24-22.58Q382.36-24.61 384.01-25.76 385.66-26.9 387.78-26.9L387.78-26.9Q388.54-26.9 389.33-26.77 390.12-26.64 390.47-26.51L390.47-26.51 389.83-22.05 386.49-22.24Q384.58-22.36 383.29-21.37 381.99-20.39 381.29-18.73ZM399.13 10.67L399.13 10.67Q398.57 10.67 397.67 10.53 396.76 10.4 396.27 10.28L396.27 10.28 396.76 6.49Q397.18 6.54 397.91 6.58 398.64 6.62 398.91 6.62L398.91 6.62Q400.45 6.62 401.41 5.44 402.38 4.27 403.21 2.25L403.21 2.25 404.35-0.54 395-22.92 392.17-23.32 392.17-26.42 403.26-26.42 403.26-23.32 400.06-22.83 405.21-9.62 406.45-6.18 406.6-6.18 412.7-22.83 409.34-23.32 409.34-26.42 420.2-26.42 420.2-23.32 417.46-22.92 407.06 4.05Q406.33 5.98 405.31 7.47L405.31 7.47Q404.26 8.96 402.76 9.81 401.25 10.67 399.13 10.67ZM455.79 0.51L455.79 0.51Q450.86 0.51 447.25-1.78L447.25-1.78Q443.63-4.05 441.68-8.11 439.73-12.16 439.73-17.48L439.73-17.48 439.73-18.07Q439.73-23.44 441.7-27.49L441.7-27.49Q443.66-31.52 447.07-33.79 450.49-36.06 454.84-36.06L454.84-36.06Q458.99-36.06 461.88-35.11 464.77-34.16 466.83-32.54L466.83-32.54 466.83-25.37 462.87-25.37 462.36-30.52Q459.96-32.1 455.33-32.1L455.33-32.1Q452.3-32.1 449.83-30.35L449.83-30.35Q447.39-28.59 445.98-25.45 444.56-22.31 444.56-18.12L444.56-18.12 444.56-17.48Q444.56-13.23 445.88-10.08L445.88-10.08Q447.17-6.91 449.69-5.16 452.2-3.42 455.79-3.42L455.79-3.42Q458.23-3.42 459.92-3.85 461.6-4.27 462.89-4.96L462.89-4.96 462.89-13.31 456.08-13.55 456.08-17.09 467.7-17.09 467.7-3.32Q466.17-1.88 463.3-0.68 460.43 0.51 455.79 0.51ZM472.19-3.08L476.17-3.76 476.17-34.3 472.19-34.99 472.19-38.09 480.98-38.09 480.98-3.76 484.96-3.08 484.96 0 472.19 0 472.19-3.08ZM500.32 0.51L500.32 0.51Q496.68 0.51 494.02-1.22L494.02-1.22Q491.36-2.95 489.92-5.98 488.48-9.01 488.48-12.92L488.48-12.92 488.48-13.45Q488.48-17.33 489.92-20.41L489.92-20.41Q491.36-23.46 494.01-25.18 496.65-26.9 500.27-26.9L500.27-26.9Q503.91-26.9 506.59-25.17L506.59-25.17Q509.23-23.44 510.67-20.41 512.11-17.38 512.11-13.45L512.11-13.45 512.11-12.92Q512.11-9.03 510.67-5.96L510.67-5.96Q509.23-2.93 506.59-1.21 503.95 0.51 500.32 0.51ZM500.32-3.25L500.32-3.25Q502.61-3.25 504.17-4.52L504.17-4.52Q505.71-5.76 506.51-7.95 507.3-10.13 507.3-12.92L507.3-12.92 507.3-13.45Q507.3-16.21 506.52-18.43L506.52-18.43Q505.71-20.61 504.15-21.86 502.59-23.12 500.27-23.12L500.27-23.12Q498-23.12 496.41-21.88L496.41-21.88Q494.85-20.61 494.07-18.42 493.28-16.24 493.28-13.45L493.28-13.45 493.28-12.92Q493.28-10.16 494.07-7.96L494.07-7.96Q494.85-5.76 496.42-4.5 498-3.25 500.32-3.25ZM557.39-23.32L554.46-22.9 547.63 0 543.06 0 537.72-15.87 536.45-20.12 536.3-20.09 535.05-15.87 529.32 0 525.19 0 518.23-22.97 515.28-23.32 515.28-26.42 526.19-26.42 526.19-23.32 522.95-22.78 526.58-9.62 527.41-6.49 527.56-6.49 528.63-9.62 534.37-26.42 538.42-26.42 543.89-9.67 545.06-5.96 545.21-5.96 546.36-9.67 550.05-22.8 546.72-23.32 546.72-26.42 557.39-26.42 557.39-23.32Z" opacity="1" transform="matrix(1,0,0,1,0,0)" fill="black" class="slogan-text-1" id="SvgjsPath4648"></path></svg></g></svg></g></svg></g></svg></g><g><svg viewBox="0 0 112.76136533715692 110.39665213439598" height="110.39665213439598" width="112.76136533715692"><g><svg xmlns="http://www.w3.org/2000/svg" xmlns:xlink="http://www.w3.org/1999/xlink" version="1.1" x="0" y="0" viewBox="12.833 13.54 69.334 67.88" enable-background="new 0 0 95 95" xml:space="preserve" height="110.39665213439598" width="112.76136533715692" class="icon-icon-0" data-fill-palette-color="accent" id="SvgjsSvg4647"><g fill="black"><path d="M35.784 69.836C35.83 69.836 35.879 69.826 35.927 69.809 36.143 69.828 36.362 69.836 36.583 69.836 40.948 69.836 44.5 66.284 44.5 61.919 44.5 61.016 44.341 60.115 44.027 59.244A8 8 0 0 0 43.365 57.849C43.172 57.099 43.3 56.419 43.747 55.829 44.375 54.999 45.595 54.455 47.001 54.349V80.92A0.5 0.5 0 0 0 48.001 80.92V54.352C49.406 54.457 50.626 55.002 51.253 55.831 51.7 56.421 51.828 57.1 51.635 57.85 51.37 58.29 51.149 58.759 50.973 59.246A7.9 7.9 0 0 0 50.5 61.92C50.5 66.285 54.052 69.837 58.417 69.837 58.633 69.837 58.846 69.828 59.057 69.811A0.5 0.5 0 0 0 59.216 69.837C70.498 69.837 82.167 60.608 82.167 45.163 82.167 30.235 67.342 13.54 47.5 13.54S12.833 30.234 12.833 45.162C12.833 60.605 24.502 69.836 35.784 69.836M48.001 14.552C67.018 14.831 81.167 30.833 81.167 45.162 81.167 59.905 70.118 68.746 59.379 68.835A0.5 0.5 0 0 0 59.133 68.799 7 7 0 0 1 58.417 68.836C54.604 68.836 51.5 65.732 51.5 61.919 51.5 61.132 51.641 60.346 51.914 59.582 52.073 59.139 52.279 58.71 52.523 58.311A0.6 0.6 0 0 0 52.58 58.184C52.883 57.108 52.699 56.084 52.051 55.229 51.229 54.143 49.738 53.463 48.001 53.352zM47.001 14.552V53.352C45.265 53.463 43.772 54.143 42.949 55.229 42.301 56.084 42.117 57.108 42.42 58.184A0.5 0.5 0 0 0 42.476 58.311C42.721 58.71 42.927 59.139 43.086 59.582 43.36 60.346 43.5 61.132 43.5 61.919A6.926 6.926 0 0 1 35.867 68.799 0.43 0.43 0 0 0 35.648 68.836C24.901 68.762 13.833 59.918 13.833 45.162 13.833 30.833 27.984 14.83 47.001 14.552" fill="black"></path></g></svg></g></svg></g></svg></g><defs><mask></mask></defs></svg><rect width="395.52" height="84.00839501904753" fill="black" stroke="none" visibility="hidden"></rect></g></mask></svg><rect width="395.52" height="84.00839501904753" fill="black" stroke="none" visibility="hidden"></rect></g></mask><linearGradient x1="0.054" x2="0.941" y1="0.5" y2="0.5" id="67bd8984-83ec-4225-b9ff-f8746659f275"><stop stop-color="#9c7945" offset="0"></stop><stop stop-color="#faf3aa" offset="0.498"></stop><stop stop-color="#9c7945" offset="1"></stop></linearGradient><rect width="395.52" height="84.00839501904753" fill="url(#67bd8984-83ec-4225-b9ff-f8746659f275)" mask="url(#65ced29e-5808-424e-9a6c-5d64c54eadc2)" data-fill-palette-color="accent"></rect></svg><rect width="395.52" height="84.00839501904753" fill="none" stroke="none" visibility="hidden"></rect></g></svg></g></svg>