<svg width="48" height="48" viewBox="0 0 48 48" fill="none" xmlns="http://www.w3.org/2000/svg">
<g clip-path="url(#clip0_492_705)">
<path fill-rule="evenodd" clip-rule="evenodd" d="M16.344 31.6579C24.034 39.3479 31.16 40.1899 33.252 40.2679C35.78 40.3599 38.36 38.2959 39.476 36.1819C37.696 34.0939 35.378 32.4739 32.84 30.7179C31.342 32.2139 29.496 34.9939 27.038 33.9979C25.64 33.4359 22.188 31.8459 19.172 28.8279C16.156 25.8099 14.566 22.3599 14 20.9639C13.004 18.5019 15.792 16.6519 17.29 15.1539C15.534 12.5739 13.942 10.1959 11.858 8.50594C9.714 9.62594 7.638 12.1859 7.732 14.7479C7.81 16.8399 8.652 23.9659 16.344 31.6579ZM33.104 44.2659C30.224 44.1599 22.062 43.0319 13.514 34.4859C4.968 25.9379 3.842 17.7779 3.734 14.8959C3.574 10.5039 6.938 6.23794 10.824 4.57194C11.292 4.36988 11.8044 4.29294 12.3111 4.34869C12.8177 4.40444 13.3012 4.59096 13.714 4.88994C16.93 7.23594 19.148 10.7899 21.054 13.5739C21.4505 14.1528 21.6321 14.8521 21.5675 15.5508C21.5028 16.2495 21.196 16.9036 20.7 17.3999L17.988 20.1139C18.618 21.5039 19.9 23.8999 22 25.9999C24.1 28.0999 26.496 29.3819 27.888 30.0119L30.598 27.2999C31.0956 26.8019 31.7526 26.4947 32.4539 26.4321C33.1552 26.3696 33.8561 26.5558 34.434 26.9579C37.274 28.9259 40.61 31.1119 43.042 34.2259C43.3653 34.6418 43.5709 35.1368 43.6374 35.6592C43.7039 36.1817 43.6288 36.7124 43.42 37.1959C41.746 41.1019 37.51 44.4279 33.104 44.2659Z" fill="white"/>
</g>
<defs>
<clipPath id="clip0_492_705">
<rect width="48" height="48" fill="white"/>
</clipPath>
</defs>
</svg>
